<svg xmlns="http://www.w3.org/2000/svg" xmlns:xlink="http://www.w3.org/1999/xlink" width="301" height="101" viewBox="0 0 301 101">
    <defs>
        <path id="a" d="M48.795 100H0V.04h97.591V100z"/>
    </defs>
    <g fill="none" fill-rule="evenodd">
        <mask id="b" fill="#fff">
            <use xlink:href="#a"/>
        </mask>
        <path fill="#001E62" d="M31.113 70.921c-5.713 0-8.454-4.386-7.026-9.466 2.961-10.516 21.977-26.102 34.925-26.102 9.458 0 8.743 8.44 3.209 15.644l-3.074 3.395C48.175 65.165 37.985 70.921 31.113 70.921zM77.428 0C60.895.006 42.671 10.112 31.241 19.685l.904 1.302C49.888 8.555 74.53.475 81.323 12.602c3.587 6.403-2.504 19.318-11.077 29.535 2.053-4.513.7-13.169-11.254-13.169C39.113 28.968 0 55.271 0 82.179 0 92.964 7.482 100 19.817 100c33.008 0 77.774-54.059 77.774-81.21C97.588 9.202 92.068 0 77.428 0z" mask="url(#b)"/>
        <path fill="#001E62" d="M150.457 28.534c-3.045-3.732-7.959-5.404-11.475-5.404h-19.31l-3.276 12.215h18.202l1.745.184c.016 0 1.679.189 2.592 1.431.747 1.036.855 2.582.321 4.596l-.867 3.213h-11.465c-9.876 0-23.638 7.073-26.703 18.506-1.528 5.696-.188 10.632 2.777 14.268 2.943 3.6 8.486 5.584 14.49 5.584h10.615v.007h13.496l6.343-23.626 4.655-17.371c1.831-6.83-.151-11.168-2.14-13.603zm-30.54 42.387c-1.916 0-3.514-.681-4.513-1.895-1.045-1.281-1.356-3.098-.858-4.976 1.09-4.077 5.488-7.267 9.999-7.267h10.621l-3.79 14.138h-11.459zM283.063 23.13c-5.227 0-10.074 1.543-14.027 4.468-3.982 2.949-6.182 6.493-7.491 11.379-2.842 10.592 5.491 15.702 12.19 19.319 4.794 2.599 8.938 4.839 8.047 8.157-.639 2.386-1.675 4.468-7.587 4.468h-18.023l-3.273 12.213h19.955c5.353 0 10.286-1.119 14.263-4.166 3.986-3.067 6.242-7.331 7.633-12.535 1.329-4.96.433-9.688-2.763-13.226-2.656-2.957-6.486-5.02-9.857-6.837-4.32-2.328-8.395-4.518-7.684-7.18.439-1.605 2.031-3.845 5.526-3.845h17.53l3.275-12.215h-17.714M178.446 23.13c-5.224 0-10.076 1.543-14.025 4.468-3.985 2.949-6.181 6.493-7.496 11.379-2.842 10.592 5.498 15.702 12.187 19.319 4.798 2.599 8.945 4.839 8.053 8.157-.641 2.386-1.673 4.468-7.584 4.468h-18.02l-3.278 12.213h19.95c5.36 0 10.293-1.119 14.27-4.166 3.99-3.067 6.23-7.331 7.627-12.535 1.334-4.96.433-9.688-2.753-13.226-2.663-2.957-6.493-5.02-9.87-6.837-4.312-2.328-8.387-4.518-7.669-7.18.425-1.605 2.034-3.845 5.516-3.845h17.525l3.283-12.215h-17.716M205.666 23.13l-15.642 60.004h13.208l15.649-60.004h-13.215M254.056 23.13c-23.278.086-35.45 15.575-39.326 30-4.586 17.104 4.533 30.004 21.203 30.004h11.173l3.274-12.213h-11.168c-6.238 0-14.815-4.912-11.366-17.791 2.748-10.241 12.739-17.785 23.709-17.785h7.092l3.277-12.215h-7.868"/>
    </g>
</svg>
