<?xml version="1.0" encoding="UTF-8"?>
<svg width="164px" height="62px" viewBox="0 0 164 62" version="1.1" xmlns="http://www.w3.org/2000/svg" xmlns:xlink="http://www.w3.org/1999/xlink">
    <title>海底捞logo 2</title>
    <defs>
        <polygon id="path-1" points="0 0 60.1615719 0 60.1615719 59.9994191 0 59.9994191"></polygon>
        <polygon id="path-3" points="0 0 18.5636388 0 18.5636388 6.0191684 0 6.0191684"></polygon>
        <polygon id="path-5" points="0 60 159 60 159 0 0 0"></polygon>
    </defs>
    <g id="北美官网" stroke="none" stroke-width="1" fill="none" fill-rule="evenodd">
        <g id="加入我们/加拿大" transform="translate(-80.000000, -28.000000)">
            <g id="海底捞logo-2" transform="translate(80.000000, 28.000000)">
                <g id="编组" transform="translate(1.000000, 1.000000)">
                    <g transform="translate(0.000146, 0.000000)">
                        <mask id="mask-2" fill="white">
                            <use xlink:href="#path-1"></use>
                        </mask>
                        <g id="Clip-2"></g>
                        <path d="M51.7103832,39.5676461 C48.1997326,47.8202236 40.3950511,54.4347742 31.623521,57.8502348 C31.6133283,57.8516869 31.6031356,57.8531391 31.592943,57.8531391 C31.4822796,57.8531391 31.3934576,57.7631057 31.3934576,57.6541943 C31.3934576,57.6149862 31.4051064,57.5757781 31.4254918,57.5467351 C32.6631745,56.0873227 32.9121671,53.5460574 30.1222847,53.5925263 C29.6126506,53.5925263 29.0986483,53.5780047 28.5831899,53.5446053 C15.5438386,52.7212353 5.64383311,41.5120771 6.47235247,28.5080594 C7.29941573,15.505494 18.5404868,5.63231521 31.578382,6.45568517 C44.6177333,7.28195944 54.5177387,18.4911177 53.6892194,31.4951353 C53.5072072,34.3645869 52.815561,37.0830147 51.7103832,39.5676461 M30.081514,-0.000580860642 C13.5125829,-0.000580860642 0,13.4768382 0,30.0008713 C0,46.5234522 13.5125829,59.9994191 30.081514,59.9994191 C46.648989,59.9994191 60.1615719,46.5234522 60.1615719,30.0008713 C60.1615719,13.4768382 46.648989,-0.000580860642 30.081514,-0.000580860642" id="Fill-1" fill="#E60012" mask="url(#mask-2)"></path>
                    </g>
                    <path d="M34.6169658,26.8244349 C34.5092146,26.8287913 34.3985512,26.8404085 34.2893439,26.8462171 C35.0567072,24.4646885 35.9842412,22.036691 37.1301898,19.3894187 C37.9092018,17.5902028 37.7723287,17.0412895 36.4472801,15.9332978 C35.9158046,15.5426691 35.4862559,15.915872 35.2168779,16.4212208 C33.556927,19.5230166 31.9508517,23.3174887 30.6432763,27.2266809 C28.6906498,27.5069461 26.7278307,27.8845055 24.9630408,28.2562564 C24.5990164,28.3332204 24.233536,28.4130887 23.8680556,28.4929571 C25.1829115,24.1045549 26.8734404,19.8178034 29.0401132,15.5499298 C29.7885472,14.0789002 29.9385252,13.8538167 28.9804132,12.8068154 C28.5756182,12.3639092 28.0470548,12.0241057 27.7281695,12.0676703 C27.3728818,12.1170434 27.0874867,12.4074737 26.7190941,12.9621957 C24.0122092,17.0311244 21.4363731,23.3363667 19.5085003,29.6358004 C17.5413129,30.2384433 15.7794351,30.925311 14.5242793,31.6804298 C13.682655,32.1843264 13.203599,32.9074979 13.1788454,33.7482937 C13.1511795,34.6602449 13.4817136,35.9090953 14.5388403,35.8088968 C15.7226473,35.0029527 17.0229422,34.2725205 18.3771127,33.6117915 C17.5078226,36.9168885 16.8540349,40.0869355 16.4987472,42.7792246 C16.3254716,43.8058957 16.5089399,44.507285 16.9676105,45.0591026 C17.1481666,45.2769253 17.5966446,45.6268938 17.857286,45.8084128 C18.4571981,46.2266325 19.2216491,46.6201655 19.9409612,46.1990416 C20.3675977,45.9478194 20.4840855,45.4453749 20.5932928,44.9037223 C21.1189439,40.3265405 21.8863072,35.9424948 22.9798363,31.6746212 C25.4391846,30.7771915 27.8563061,30.0830631 29.9021228,29.5646449 C28.9192571,32.840699 28.1737353,36.1153008 27.8169915,39.0631686 C27.6480842,40.4499734 27.2330965,42.3000145 28.3076963,43.4181713 C29.0284644,44.1674815 30.2690593,44.0919696 30.8471299,43.3905804 C31.132525,43.042064 31.2533811,42.543976 31.2781347,41.9529503 C31.7979615,36.9386708 32.5303784,32.8174645 33.7272904,28.6831889 C34.0345269,28.6192943 34.3126415,28.5626603 34.5470732,28.5161915 C35.1979486,28.38695 35.7308803,28.3274118 36.1036412,28.3056295 C36.744324,28.2693257 36.6642386,28.032625 36.6176435,27.9164529 C36.2900216,27.1163173 35.3566632,26.7895832 34.6169658,26.8244349" id="Fill-3" fill="#E60012"></path>
                    <path d="M45.5007106,36.9257466 C44.2411865,39.2840409 42.7617916,40.2410088 41.2168724,39.5831841 C39.938419,39.0386272 40.5004725,36.6382206 41.285309,33.8994627 C41.928904,31.6544363 42.9947672,29.4282879 43.4301403,28.596205 C43.5873988,28.2752795 43.7461134,28.212837 43.724272,27.9340239 C43.6762207,27.6871581 43.5349793,27.4577182 43.3369501,27.2573213 C43.3427745,27.2616777 43.3529671,27.2674863 43.3573354,27.2718428 C43.4694549,27.1527663 43.4301403,26.9029963 43.0777648,26.5472191 C42.8316843,26.2930926 42.9306989,25.8501864 42.9306989,25.8501864 C43.6660281,22.4782903 42.8258599,20.3421753 42.6744258,19.9980154 C42.6700575,19.9907546 42.6671453,19.9820417 42.6642331,19.974781 C42.6554965,19.955903 42.6496721,19.9486422 42.6496721,19.9486422 C42.482221,19.6059345 42.1429503,19.3576165 41.7366991,19.3256692 C41.12077,19.276296 40.5805579,19.7322716 40.5310506,20.3465318 C40.4815433,20.9622441 40.9402139,21.498088 41.5561431,21.5474612 C41.7206821,21.5619827 41.8808528,21.5372961 42.0279186,21.4835665 L42.0264625,21.4850186 C42.5564819,21.2744567 42.3802941,25.7950046 41.1396993,25.7979089 C40.8018847,25.7950046 39.983558,25.9271504 39.9879263,26.1478774 C39.7068995,26.172564 39.4651874,26.2306501 39.2962801,26.3308485 C38.8900289,26.6053052 39.2744386,27.2152089 39.1797923,27.8149475 C38.9570094,29.0667022 38.2085754,30.7933104 37.5329463,33.5799894 C37.0902927,35.4067961 35.1158248,41.8194976 41.3144309,41.8194976 C44.2805011,41.8194976 45.8778398,38.6044339 46.2578812,37.1551866 C46.2738983,37.0883876 46.3321422,36.9736677 46.4588227,36.9925456 C46.6175373,36.7137325 45.9084179,36.0486471 45.5007106,36.9257466" id="Fill-5" fill="#E60012"></path>
                    <g transform="translate(140.436361, 7.401762)">
                        <mask id="mask-4" fill="white">
                            <use xlink:href="#path-3"></use>
                        </mask>
                        <g id="Clip-8"></g>
                        <polygon id="Fill-7" fill="#E60012" mask="url(#mask-4)" points="0 1.63802701 3.23690428 1.63802701 3.23690428 0 6.44905491 0 6.44905491 1.63802701 12.1176417 1.63802701 12.1176417 0 15.3268801 0 15.3268801 1.63802701 18.5637844 1.63802701 18.5637844 4.23011762 15.3268801 4.23011762 15.3268801 6.0191684 12.1176417 6.0191684 12.1176417 4.23011762 6.44905491 4.23011762 6.44905491 6.0191684 3.23690428 6.0191684 3.23690428 4.23011762 0 4.23011762"></polygon>
                    </g>
                    <path d="M141.636622,14.4796941 C141.113883,14.5610146 140.70472,14.9690692 140.624635,15.4889394 L140.624635,19.4518612 L143.806207,19.4518612 L143.806207,17.0703325 L155.631173,17.0703325 L155.631173,19.4518612 L158.812746,19.4518612 L158.812746,15.4889394 C158.734117,14.9690692 158.322041,14.5610146 157.80367,14.4796941 L141.636622,14.4796941 Z" id="Fill-9" fill="#E60012"></path>
                    <path d="M157.563997,20.9875115 L149.791349,20.9875115 C149.792806,20.7740452 149.797174,19.124401 149.797174,19.124401 L146.475816,19.124401 C146.475816,19.124401 146.472904,20.7740452 146.469992,20.9875115 L140.763546,20.9875115 L140.763546,23.5766978 L146.276331,23.5766978 C145.788538,27.0633138 144.314968,29.909531 140.789756,31.9352824 L140.79558,31.9425432 L142.898185,34.5317295 C147.212601,31.8757442 149.072037,28.0986979 149.616618,23.5766978 L155.256083,23.5766978 L155.256083,24.7514885 L155.263363,24.76601 C155.295397,27.6732175 154.972144,30.0445811 152.539005,31.9352824 L154.621224,34.5041386 C157.897443,31.9352824 158.610931,28.7245752 158.567248,24.7514885 L158.575984,24.7514885 L158.575984,21.9924004 C158.494443,21.4754344 158.082367,21.0659277 157.563997,20.9875115" id="Fill-11" fill="#E60012"></path>
                    <path d="M138.191787,16.2892202 C137.99667,16.4271746 137.789904,16.565129 137.572946,16.7074399 L137.572946,11.63217 L139.170285,11.63217 L139.170285,9.04007938 L137.572946,9.04007938 L137.572946,7.40060022 L134.2545,7.40060022 L134.2545,9.04007938 L131.812625,9.04007938 L131.812625,11.63217 L134.2545,11.63217 L134.2545,18.5836197 C133.156603,19.1354373 132.068898,19.6277167 131.155925,19.9907546 L132.451852,22.8936057 C133.002256,22.6815916 133.613817,22.4027785 134.2545,22.0876616 L134.2545,24.7654291 C134.271973,26.3657002 134.170047,27.7757394 133.739042,28.9853817 C133.350264,30.0846604 132.662986,31.0692192 131.508301,31.9564839 L133.594888,34.5238879 C135.263576,33.2242122 136.274107,31.7517305 136.865283,30.0846604 C137.440441,28.4626071 137.588963,26.7069558 137.570034,24.7523597 L137.572946,24.7523597 L137.572946,20.2637591 C138.302451,19.8295658 138.98536,19.4011811 139.576536,19.0149088 L138.191787,16.2892202 Z" id="Fill-13" fill="#E60012"></path>
                    <path d="M118.247331,31.7168788 C117.334358,30.6480953 116.590293,29.142214 116.498559,27.7191055 L113.13643,27.7191055 C113.357757,30.2284234 114.425076,32.485067 116.137446,34.3162302 L118.247331,31.7168788 Z" id="Fill-15" fill="#E60012"></path>
                    <path d="M110.306942,20.6471272 L110.306942,15.8637398 L116.651158,15.8637398 L117.990767,20.6471272 L110.306942,20.6471272 Z M126.322556,31.7575391 C125.454722,30.9777337 124.799478,30.1906675 124.26509,29.275812 C123.698668,28.3014183 123.257471,27.1455056 122.835203,25.674476 L122.833747,25.674476 L122.150837,23.2363135 L126.820541,23.2363135 L126.820541,20.6471272 L121.427157,20.6471272 L120.089003,15.8637398 L126.203156,15.8637398 L126.203156,13.2731013 L107.996115,13.2731013 C107.476289,13.3529697 107.067125,13.7624764 106.98704,14.2808945 C106.98704,14.2808945 106.995776,25.9358633 106.998689,26.0956 C107.019074,29.3934363 107.030723,31.2884941 108.907632,34.1448763 L111.144198,31.4075706 C110.327327,29.7739 110.31859,28.3333656 110.304029,26.0825306 C110.302573,25.8995595 110.306942,23.2363135 110.306942,23.2363135 L118.714447,23.2363135 L119.647806,26.5646449 L119.647806,26.5777143 C120.137054,28.2999661 120.678723,29.6911274 121.398035,30.932717 C122.133364,32.1946367 123.034688,33.2634203 124.2316,34.3176824 L126.322556,31.7575391 Z" id="Fill-17" fill="#E60012"></path>
                    <path d="M116.144144,8.46270391 L116.144144,7.11801152 L112.824243,7.11801152 L112.824243,8.46270391 L102.769891,8.46270391 C102.264625,8.55273731 101.867111,8.95643545 101.788481,9.46614067 L101.788481,24.6788809 C101.807411,26.2806041 101.704028,27.6862868 101.274479,28.8988334 C100.882789,29.9995644 100.196967,30.9812188 99.045194,31.8684835 L101.128869,34.4373397 C102.797557,33.1362118 103.806632,31.6666344 104.397808,29.9966601 C104.974422,28.377511 105.122944,26.6189554 105.102559,24.6643594 L105.109839,24.6643594 L105.109839,11.0489859 L126.82025,11.0489859 L126.82025,8.46270391 C123.26446,8.46270391 119.702846,8.4597996 116.144144,8.46270391" id="Fill-19" fill="#E60012"></path>
                    <path d="M69.1502061,25.4162835 L69.1560304,25.4162835 C69.1472939,26.6491602 69.0541036,27.7615083 68.6391159,28.7823709 C68.237233,29.7654775 67.50336,30.7355148 66.1914164,31.762186 L68.2721794,34.3266857 C70.0675473,32.9108379 71.1086569,31.5022508 71.7114812,30.0239605 C72.3186738,28.5326008 72.4497225,27.0455976 72.4642835,25.4279007 L72.4701079,25.4162835 L72.4701079,20.2655017 L69.1502061,20.2655017 L69.1502061,25.4162835 Z" id="Fill-21" fill="#E60012"></path>
                    <path d="M76.7015266,11.0478242 L95.0774744,11.0478242 L95.0774744,8.45428143 L79.0094408,8.45428143 L79.0094408,7.11539765 L75.689539,7.11539765 L75.689539,10.040031 C75.7696243,10.5584491 76.1802438,10.9679559 76.7015266,11.0478242" id="Fill-23" fill="#E60012"></path>
                    <mask id="mask-6" fill="white">
                        <use xlink:href="#path-5"></use>
                    </mask>
                    <g id="Clip-26"></g>
                    <polygon id="Fill-25" fill="#E60012" mask="url(#mask-6)" points="66.6426609 17.0802072 72.4685062 17.0802072 72.4685062 14.4895687 66.6426609 14.4895687"></polygon>
                    <path d="M91.0059352,28.1688368 L87.0293335,28.1688368 L87.0293335,24.1042645 L83.7108878,24.1042645 L83.7108878,28.1688368 L79.5027666,28.1688368 L79.7168129,22.8568663 L91.0059352,22.8568663 C91.0146718,24.6430127 91.0539864,26.4248027 91.0059352,28.1688368 L91.0059352,28.1688368 Z M80.002208,15.6890459 L91.0059352,15.6890459 C91.0059352,17.193475 90.9928303,18.7269471 91.0059352,20.2647756 L87.0293335,20.2647756 L87.0293335,16.95387 L83.7108878,16.95387 L83.7108878,20.2647756 L79.8187397,20.2647756 L80.002208,15.6890459 Z M95.7906709,22.8568663 L95.7906709,20.2647756 L94.3039956,20.2647756 L94.3054517,14.1047485 C94.2268224,13.5863304 93.816203,13.179728 93.2949201,13.0984075 L77.7612742,13.0984075 C77.2501841,13.1782758 76.8439329,13.5747132 76.7565671,14.0815141 L76.5061184,20.2647756 L74.4195309,20.2647756 L74.4195309,22.8568663 L76.4041915,22.8568663 L76.1275331,29.760395 C76.2090745,30.2744567 76.6167818,30.6825113 77.1351524,30.7623796 L79.3993837,30.7623796 L90.3885499,30.7623796 C90.0813134,31.225616 89.5993452,31.6815916 88.8756649,32.1782274 L88.8814892,32.1854882 L90.9622523,34.7470836 C92.5319252,33.6332833 93.3808299,32.509318 93.846781,31.168982 C93.8948322,31.0353841 93.937059,30.8959775 93.9763737,30.7623796 L95.4295588,30.7623796 L95.4295588,28.1688368 L94.2996273,28.1688368 L94.3039956,22.8568663 L95.7906709,22.8568663 Z" id="Fill-27" fill="#E60012" mask="url(#mask-6)"></path>
                    <polygon id="Fill-28" fill="#E60012" mask="url(#mask-6)" points="66.6426609 10.9753618 72.4685062 10.9753618 72.4685062 8.38472337 66.6426609 8.38472337"></polygon>
                    <polygon id="Fill-29" fill="#E60012" mask="url(#mask-6)" points="79.1083098 54.9896413 79.1083098 47.1625442 71.867138 47.1625442 71.867138 54.9896413 68.5486923 54.9896413 68.5486923 37.2225664 71.867138 37.2225664 71.867138 44.4731594 79.1083098 44.4731594 79.1083098 37.2225664 82.4267556 37.2225664 82.4267556 54.9896413"></polygon>
                    <path d="M99.1485769,54.990077 L102.260257,54.990077 L102.260257,42.4376785 L99.1485769,42.4376785 L99.1485769,54.990077 Z M99.0641232,39.913839 L102.340342,39.913839 L102.340342,37.2215499 L99.0641232,37.2215499 L99.0641232,39.913839 Z" id="Fill-30" fill="#E60012" mask="url(#mask-6)"></path>
                    <path d="M120.334792,54.990077 L123.446472,54.990077 L123.446472,42.4376785 L120.334792,42.4376785 L120.334792,54.990077 Z M120.251795,39.913839 L123.528014,39.913839 L123.528014,37.2215499 L120.251795,37.2215499 L120.251795,39.913839 Z" id="Fill-31" fill="#E60012" mask="url(#mask-6)"></path>
                    <path d="M152.804015,44.444552 C150.822266,44.444552 149.773876,45.5699695 149.773876,48.6456266 C149.773876,51.4744179 150.711603,52.9846556 152.804015,52.9846556 C154.731888,52.9846556 155.806487,51.695145 155.806487,48.6456266 C155.806487,45.5699695 154.896427,44.444552 152.804015,44.444552 M152.804015,55.3748971 C148.260991,55.3748971 146.580655,52.2716492 146.580655,48.6456266 C146.580655,45.1590106 148.287201,42.0543105 152.804015,42.0543105 C157.37616,42.0543105 158.999709,44.9934653 158.999709,48.6456266 C158.999709,52.2440583 157.320829,55.3748971 152.804015,55.3748971" id="Fill-32" fill="#E60012" mask="url(#mask-6)"></path>
                    <path d="M141.207802,51.6656663 C140.712728,52.3539862 139.857999,52.9580812 138.701858,52.9580812 C137.545717,52.9580812 136.472573,52.6284428 136.472573,51.5582071 C136.472573,50.0479694 137.545717,49.1970086 140.519068,49.1970086 L141.207802,49.1970086 L141.207802,51.6656663 Z M144.320938,50.8263227 C144.320938,49.9506753 144.319481,46.0923084 144.319481,46.0923084 C144.319481,43.3462898 142.336277,42.0829179 139.555131,42.0829179 C137.571927,42.0829179 135.397973,42.4111041 133.717637,43.0151992 L135.53339,45.2573213 C136.640024,44.8202236 137.98109,44.4717072 139.390592,44.4717072 C140.987931,44.4717072 141.180136,45.541943 141.180136,46.5032673 L141.180136,47.1073624 L140.133202,47.1073624 C134.764571,47.1073624 133.222564,49.1418268 133.222564,51.6961615 C133.222564,54.0834987 134.936391,55.5545283 138.123788,55.3468706 C140.886004,55.1668038 141.759662,53.3632315 141.759662,53.3632315 C142.168826,54.1081853 142.799316,54.6353163 143.643852,55.3265405 L145.34603,53.2223728 C144.435969,52.5311487 144.320938,52.0925989 144.320938,50.8263227 L144.320938,50.8263227 Z" id="Fill-33" fill="#E60012" mask="url(#mask-6)"></path>
                    <path d="M92.8771658,51.6656663 C92.3806367,52.3539862 91.5273636,52.9580812 90.3712224,52.9580812 C89.213625,52.9580812 88.1419374,52.6284428 88.1419374,51.5582071 C88.1419374,50.0479694 89.213625,49.1970086 92.1884318,49.1970086 L92.8771658,49.1970086 L92.8771658,51.6656663 Z M95.9903018,50.8263227 C95.9903018,49.9506753 95.9888457,46.0923084 95.9888457,46.0923084 C95.9888457,43.3462898 94.0056412,42.0829179 91.2244954,42.0829179 C89.2412909,42.0829179 87.0673376,42.4111041 85.3870014,43.0151992 L87.2012986,45.2573213 C88.3093886,44.8202236 89.6504542,44.4717072 91.0585003,44.4717072 C92.6572951,44.4717072 92.8495,45.541943 92.8495,46.5032673 L92.8495,47.1073624 L91.802566,47.1073624 C86.4339353,47.1073624 84.8904722,49.1418268 84.8904722,51.6961615 C84.8904722,54.0834987 86.6042987,55.5545283 89.7931518,55.3468706 C92.5553683,55.1668038 93.4290267,53.3632315 93.4290267,53.3632315 C93.83819,54.1081853 94.4672241,54.6353163 95.3132166,55.3265405 L97.0153943,53.2223728 C96.1053335,52.5311487 95.9903018,52.0925989 95.9903018,50.8263227 L95.9903018,50.8263227 Z" id="Fill-34" fill="#E60012" mask="url(#mask-6)"></path>
                    <path d="M113.615195,50.9310228 C113.249714,52.0332059 112.140168,52.9582264 110.854434,52.9582264 C108.954227,52.9582264 108.259669,51.392807 108.245108,48.7005179 C108.226179,45.2966746 109.428915,44.4718525 110.834049,44.4718525 C112.183851,44.4718525 113.615195,45.6045307 113.615195,46.8882327 L113.615195,50.9310228 Z M116.737067,50.8104942 L116.737067,37.2227117 L113.615195,37.2227117 L113.615195,44.1349533 C112.900251,43.146038 111.797985,42.0830631 110.255978,42.0830631 C106.649225,42.0830631 105.051887,45.1587202 105.051887,48.6467883 C105.051887,51.6846895 106.059506,55.3470158 110.273451,55.3470158 C112.285778,55.3470158 113.699648,53.9645675 114.084058,53.3343337 L114.078234,53.2109008 C114.483029,54.0473401 115.145553,54.6020621 116.05707,55.3470158 L117.776721,53.222518 C116.852099,52.5211288 116.737067,52.0869355 116.737067,50.8104942 L116.737067,50.8104942 Z" id="Fill-35" fill="#E60012" mask="url(#mask-6)"></path>
                    <path d="M130.229556,52.5774723 L130.229556,37.2224212 L127.10914,37.2224212 L127.10914,52.4729174 C127.10914,55.1347113 127.966781,55.8244833 129.549559,57.1168982 L131.272122,54.9909483 C130.346044,54.289559 130.229556,53.8553657 130.229556,52.5774723" id="Fill-36" fill="#E60012" mask="url(#mask-6)"></path>
                </g>
            </g>
        </g>
    </g>
</svg>