<svg width="146" height="46" viewBox="0 0 146 46" fill="none" xmlns="http://www.w3.org/2000/svg">
<path d="M71.4736 33.3643H70.9351H70.9131H70.346C69.3084 33.3643 68.4688 34.1463 68.4688 35.1127V35.4669V35.7883V36.4987C68.4688 37.465 69.3084 38.2471 70.346 38.2471H70.9131H70.9636H71.4736C71.7791 38.2471 72.0671 38.1775 72.3221 38.0567V39.0701C72.3221 40.2002 71.3373 41.1174 70.1239 41.1174H69.1831C68.9216 41.1174 68.7105 41.314 68.7105 41.5576C68.7105 41.8012 68.9216 41.9978 69.1831 41.9978H70.2075C71.9418 41.9978 73.3486 40.6875 73.3486 39.0722V36.4987V35.7883V35.4669V35.1127C73.3508 34.1463 72.5111 33.3643 71.4736 33.3643ZM72.3243 35.4669V35.7883V36.4987C72.3243 36.9798 71.9066 37.3688 71.3901 37.3688H70.9636H70.9131H70.4295C69.9129 37.3688 69.4953 36.9798 69.4953 36.4987V35.7883V35.4669V35.1127C69.4953 34.6315 69.9129 34.2426 70.4295 34.2426H70.9131H70.9351H71.3879C71.9044 34.2426 72.3221 34.6315 72.3221 35.1127V35.4669H72.3243Z" fill="#E60012"/>
<path d="M77.3877 33.3643H76.8491H76.8271H76.26C75.2225 33.3643 74.3828 34.1463 74.3828 35.1127V35.4669V35.7883V36.4987C74.3828 37.465 75.2225 38.2471 76.26 38.2471H76.8271H76.8777H77.3877C77.6932 38.2471 77.9812 38.1775 78.2361 38.0567V39.0701C78.2361 40.2002 77.2514 41.1174 76.038 41.1174H75.0972C74.8356 41.1174 74.6246 41.314 74.6246 41.5576C74.6246 41.8012 74.8356 41.9978 75.0972 41.9978H76.1215C77.8559 41.9978 79.2627 40.6875 79.2627 39.0722V36.4987V35.7883V35.4669V35.1127C79.2649 34.1463 78.4252 33.3643 77.3877 33.3643ZM78.2383 35.4669V35.7883V36.4987C78.2383 36.9798 77.8207 37.3688 77.3041 37.3688H76.8777H76.8271H76.3436C75.827 37.3688 75.4093 36.9798 75.4093 36.4987V35.7883V35.4669V35.1127C75.4093 34.6315 75.827 34.2426 76.3436 34.2426H76.8271H76.8491H77.3019C77.8185 34.2426 78.2361 34.6315 78.2361 35.1127V35.4669H78.2383Z" fill="#E60012"/>
<path d="M88.3268 36.7031C87.841 36.7031 87.4453 37.0696 87.4453 37.5241C87.4453 37.9766 87.8388 38.3451 88.3268 38.3451C88.8147 38.3451 89.2082 37.9786 89.2082 37.5241C89.2082 37.0696 88.8147 36.7031 88.3268 36.7031Z" fill="#E60012"/>
<path d="M61.7649 36.5827H59.0986V34.2427H61.3143C61.5759 34.2427 61.7869 34.0461 61.7869 33.8025C61.7869 33.5588 61.5759 33.3623 61.3143 33.3623H54.0538C53.7923 33.3623 53.5812 33.5588 53.5812 33.8025C53.5812 34.0461 53.7923 34.2427 54.0538 34.2427H58.0698V36.5827H53.6032C53.3241 36.5827 53.0977 36.7936 53.0977 37.0536C53.0977 37.3136 53.3241 37.5225 53.601 37.5225H58.0676V39.7725C58.0676 40.5156 57.4214 41.1175 56.6235 41.1175H55.7904C55.5288 41.1175 55.3178 41.3141 55.3178 41.5577C55.3178 41.8013 55.5288 41.9979 55.7904 41.9979H56.7092C58.0281 41.9979 59.0964 41.0029 59.0964 39.7745V37.5225H61.7627C62.0419 37.5225 62.2661 37.3116 62.2661 37.0536C62.2705 36.7936 62.0419 36.5827 61.7649 36.5827Z" fill="#E60012"/>
<path d="M84.7608 33.3643H80.8107C80.5294 33.3643 80.3008 33.5669 80.3008 33.8188C80.3008 34.0706 80.5294 34.2733 80.8107 34.2733H84.097L81.9846 41.4266C81.912 41.6682 82.0747 41.9179 82.3472 41.9814C82.3912 41.9916 82.4352 41.9978 82.4769 41.9978C82.7033 41.9978 82.91 41.8627 82.9693 41.6579L85.251 33.9334C85.2928 33.7983 85.2576 33.6529 85.1631 33.5403C85.0663 33.4298 84.9169 33.3643 84.7608 33.3643Z" fill="#E60012"/>
<path d="M65.8764 33.4234L64.4872 34.056C64.2322 34.1727 64.1267 34.4594 64.252 34.6968C64.3773 34.9343 64.685 35.0326 64.94 34.9159L65.6148 34.6068V41.5185C65.6148 41.7826 65.8456 41.9976 66.1292 41.9976C66.4128 41.9976 66.6436 41.7826 66.6436 41.5185V33.8431C66.6458 33.5033 66.2633 33.2473 65.8764 33.4234Z" fill="#E60012"/>
<path d="M103.946 33.0078C103.585 33.0078 103.293 33.2801 103.293 33.6159C103.293 33.9516 103.585 34.2239 103.946 34.2239C104.306 34.2239 104.599 33.9516 104.599 33.6159C104.599 33.2801 104.306 33.0078 103.946 33.0078Z" fill="#E60012"/>
<path d="M111.99 34.6931C112.251 34.6931 112.462 34.4966 112.462 34.253C112.462 34.0093 112.251 33.8128 111.99 33.8128H111.614V33.4791C111.614 33.215 111.383 33 111.1 33C110.816 33 110.585 33.215 110.585 33.4791V33.8128H106.932V33.4791C106.932 33.215 106.701 33 106.418 33C106.134 33 105.903 33.215 105.903 33.4791V33.8128H105.527C105.266 33.8128 105.055 34.0093 105.055 34.253C105.055 34.4966 105.266 34.6931 105.527 34.6931H105.903V38.8594H105.527C105.266 38.8594 105.055 39.056 105.055 39.2996C105.055 39.5432 105.266 39.7398 105.527 39.7398H111.988C112.249 39.7398 112.46 39.5432 112.46 39.2996C112.46 39.056 112.249 38.8594 111.988 38.8594H111.612V34.6931H111.99ZM110.587 38.8615H106.934V38.0589H110.587V38.8615ZM110.587 37.1786H106.934V36.376H110.587V37.1786ZM110.587 35.4977H106.934V34.6952H110.587V35.4977Z" fill="#E60012"/>
<path d="M103.944 36.585C103.66 36.585 103.43 36.7999 103.43 37.064V41.519C103.43 41.7831 103.66 41.9981 103.944 41.9981C104.228 41.9981 104.458 41.7831 104.458 41.519V37.064C104.458 36.7979 104.228 36.585 103.944 36.585Z" fill="#E60012"/>
<path d="M103.946 34.7959C103.585 34.7959 103.293 35.0682 103.293 35.404C103.293 35.7397 103.585 36.012 103.946 36.012C104.306 36.012 104.599 35.7397 104.599 35.404C104.599 35.0682 104.306 34.7959 103.946 34.7959Z" fill="#E60012"/>
<path d="M107.194 40.1124C107.01 39.9404 106.711 39.9404 106.528 40.1124L105.31 41.2466C105.126 41.4186 105.126 41.697 105.31 41.8669C105.495 42.0389 105.794 42.0389 105.976 41.8669L107.194 40.7327C107.379 40.5628 107.379 40.2844 107.194 40.1124Z" fill="#E60012"/>
<path d="M110.99 40.1124C110.806 39.9404 110.507 39.9404 110.322 40.1124C110.137 40.2844 110.137 40.5628 110.322 40.7327L111.54 41.8669C111.724 42.0389 112.023 42.0389 112.208 41.8669C112.393 41.695 112.393 41.4165 112.208 41.2466L110.99 40.1124Z" fill="#E60012"/>
<path d="M115.046 36.585C114.762 36.585 114.531 36.7999 114.531 37.064V41.519C114.531 41.7831 114.762 41.9981 115.046 41.9981C115.329 41.9981 115.56 41.7831 115.56 41.519V37.064C115.56 36.7979 115.331 36.585 115.046 36.585Z" fill="#E60012"/>
<path d="M115.043 33.0078C114.683 33.0078 114.391 33.2801 114.391 33.6159C114.391 33.9516 114.683 34.2239 115.043 34.2239C115.404 34.2239 115.696 33.9516 115.696 33.6159C115.696 33.2801 115.404 33.0078 115.043 33.0078Z" fill="#E60012"/>
<path d="M115.043 36.4033C115.595 36.4033 116.043 35.9556 116.043 35.4033C116.043 34.851 115.595 34.4033 115.043 34.4033C114.491 34.4033 114.043 34.851 114.043 35.4033C114.043 35.9556 114.491 36.4033 115.043 36.4033Z" fill="#E60012"/>
<path d="M119.176 33.8145H118.343V33.4563C118.343 33.2085 118.128 33.0059 117.86 33.0059C117.591 33.0059 117.376 33.2065 117.376 33.4563V33.8145H116.543C116.281 33.8145 116.07 34.0111 116.07 34.2547C116.07 34.4984 116.281 34.6949 116.543 34.6949H117.376V41.5473C117.376 41.795 117.591 41.9977 117.86 41.9977C118.128 41.9977 118.343 41.797 118.343 41.5473V34.6949H119.176C119.438 34.6949 119.649 34.4984 119.649 34.2547C119.649 34.0111 119.436 33.8145 119.176 33.8145Z" fill="#E60012"/>
<path d="M123.09 33.8145H122.257V33.4563C122.257 33.2085 122.042 33.0059 121.774 33.0059C121.508 33.0059 121.29 33.2065 121.29 33.4563V33.8145H120.457C120.195 33.8145 119.984 34.0111 119.984 34.2547C119.984 34.4984 120.195 34.6949 120.457 34.6949H121.29V41.5473C121.29 41.795 121.505 41.9977 121.774 41.9977C122.04 41.9977 122.257 41.797 122.257 41.5473V34.6949H123.09C123.352 34.6949 123.563 34.4984 123.563 34.2547C123.563 34.0111 123.35 33.8145 123.09 33.8145Z" fill="#E60012"/>
<path d="M119.108 35.3076C118.903 35.3076 118.738 35.4612 118.738 35.6516V41.5192C118.738 41.7096 118.903 41.8631 119.108 41.8631C119.312 41.8631 119.477 41.7096 119.477 41.5192V35.6516C119.479 35.4612 119.312 35.3076 119.108 35.3076Z" fill="#E60012"/>
<path d="M123.022 35.3076C122.817 35.3076 122.652 35.4612 122.652 35.6516V41.5192C122.652 41.7096 122.817 41.8631 123.022 41.8631C123.226 41.8631 123.391 41.7096 123.391 41.5192V35.6516C123.391 35.4612 123.226 35.3076 123.022 35.3076Z" fill="#E60012"/>
<path d="M120.562 35.3115C120.356 35.3115 120.191 35.4692 120.191 35.6596C120.191 35.7026 120.22 39.8361 119.74 41.4269C119.685 41.6111 119.8 41.8015 120 41.8527C120.033 41.8609 120.066 41.867 120.101 41.867C120.263 41.867 120.413 41.7667 120.459 41.6132C120.967 39.9303 120.938 35.8315 120.938 35.6555C120.936 35.463 120.78 35.3197 120.562 35.3115Z" fill="#E60012"/>
<path d="M116.652 35.3115C116.446 35.3115 116.281 35.4692 116.281 35.6596C116.281 35.7026 116.309 39.8361 115.83 41.4269C115.775 41.6111 115.89 41.8015 116.09 41.8527C116.123 41.8609 116.155 41.867 116.191 41.867C116.353 41.867 116.503 41.7667 116.549 41.6132C117.057 39.9303 117.028 35.8315 117.028 35.6555C117.026 35.463 116.87 35.3197 116.652 35.3115Z" fill="#E60012"/>
<path d="M132.856 39.1723C132.856 38.9205 132.638 38.7178 132.368 38.7178H125.98C125.71 38.7178 125.492 38.9205 125.492 39.1723C125.492 39.4241 125.71 39.6268 125.98 39.6268H132.368C132.636 39.6268 132.856 39.422 132.856 39.1723Z" fill="#E60012"/>
<path d="M133.025 36.3182H128.274C127.923 36.3182 127.619 36.0705 127.597 35.745C127.595 35.702 127.597 35.659 127.602 35.616L127.751 34.6947H134.172C134.423 34.6947 134.642 34.5186 134.658 34.2852C134.675 34.0293 134.458 33.8164 134.187 33.8164H127.892L127.934 33.5584C127.98 33.2698 127.74 33.0098 127.426 33.0098C127.171 33.0098 126.955 33.1838 126.918 33.4172L126.591 35.4461V35.444C126.575 35.53 126.566 35.616 126.566 35.7061C126.566 36.267 126.892 36.7543 127.375 37.0205C127.617 37.1535 127.903 37.2293 128.204 37.2293H132.972C133.337 37.2293 133.631 37.5036 133.631 37.8435V40.507C133.631 40.8469 133.337 41.1212 132.972 41.1212H129.151C128.901 41.1212 128.681 41.2973 128.666 41.5307C128.648 41.7866 128.866 41.9995 129.136 41.9995H133.025C133.928 41.9995 134.66 41.3178 134.66 40.4763V37.8435C134.66 37 133.928 36.3182 133.025 36.3182Z" fill="#E60012"/>
<path d="M50.2845 37.6006H47.2027C46.7104 37.6006 46.3125 37.9712 46.3125 38.4297V41.038C46.3125 41.4966 46.7104 41.8672 47.2027 41.8672H50.2845C50.7769 41.8672 51.1748 41.4966 51.1748 41.038V38.4297C51.1726 37.9712 50.7747 37.6006 50.2845 37.6006ZM50.2164 40.7739C50.2164 40.8906 50.1153 40.9848 49.99 40.9848H47.4951C47.3698 40.9848 47.2687 40.8906 47.2687 40.7739V38.6898C47.2687 38.5731 47.3698 38.4789 47.4951 38.4789H49.9878C50.1131 38.4789 50.2142 38.5731 50.2142 38.6898V40.7739H50.2164Z" fill="#E60012"/>
<path d="M47.1969 36.9188H50.2787C50.881 36.9188 51.3096 36.3722 51.125 35.8358L50.5205 34.0895C50.4567 33.9052 50.2721 33.7803 50.0655 33.7803C49.7401 33.7803 49.5093 34.0751 49.6105 34.3617L50.0962 35.7621C50.1424 35.8993 50.0347 36.0385 49.8808 36.0385H47.5992C47.4453 36.0385 47.3354 35.8993 47.3837 35.7621L48.1311 33.6022C48.2212 33.3422 48.063 33.0678 47.775 33.0146C47.531 32.9696 47.298 33.1026 47.2255 33.3156L46.3528 35.8358C46.166 36.3722 46.5946 36.9188 47.1969 36.9188Z" fill="#E60012"/>
<path d="M44.9038 39.957C45.5017 39.0767 45.8446 38.0673 45.86 37.0498C45.8688 36.4336 45.8644 35.8091 45.86 35.2072C45.8578 34.892 45.8556 35.2379 45.8556 35.0394C45.8578 35.025 45.86 35.0086 45.86 34.9943C45.86 34.7548 45.6512 34.5582 45.3918 34.5582H43.8113L43.9081 33.5305C43.9322 33.2664 43.7234 33.035 43.4399 33.0125C43.1563 32.99 42.9079 33.1845 42.8837 33.4486L42.7782 34.5582H42.4683C42.2111 34.5582 42.0001 34.7527 42.0001 34.9943C42.0001 35.2339 42.2089 35.4304 42.4683 35.4304H42.6947L42.5342 37.1379L42.4639 37.8913C42.4243 38.3048 42.5562 38.7184 42.831 39.046L43.3321 39.6417L43.6531 40.0246L43.6575 40.0307C43.6531 40.0348 43.6509 40.0389 43.6465 40.043C43.3168 40.4115 42.9343 40.7411 42.5056 41.0114C42.4199 41.0667 42.3298 41.1178 42.2397 41.167C42.033 41.2796 41.9451 41.5171 42.0352 41.7218C42.1451 41.9736 42.4705 42.0739 42.7211 41.9368C42.8288 41.8774 42.9365 41.8139 43.0398 41.7484C43.4882 41.4659 43.8949 41.1322 44.2488 40.7616C44.2532 40.7575 44.2554 40.7534 44.2598 40.7493L45.0599 41.7034C45.2357 41.9122 45.5589 41.949 45.7809 41.7853C46.0051 41.6215 46.0446 41.3205 45.8688 41.1137L44.9038 39.957ZM44.2642 39.1954L44.262 39.1913L43.73 38.5566C43.5586 38.354 43.4794 38.098 43.5036 37.8421L43.73 35.4283H44.9038C44.9082 35.9607 44.9104 36.5032 44.9016 37.0375C44.8906 37.7725 44.662 38.5198 44.2642 39.1954Z" fill="#E60012"/>
<path d="M145.902 37.6655L145.234 36.8016C144.761 36.1915 144 35.8291 143.194 35.8291H139.393C138.584 35.8291 137.826 36.1915 137.353 36.8016L136.685 37.6655C136.533 37.86 136.564 38.1385 136.769 38.2859C136.98 38.4374 137.283 38.3944 137.439 38.1958L138.197 37.2192C138.446 36.8998 138.841 36.7115 139.263 36.7115H143.328C143.75 36.7115 144.148 36.8998 144.394 37.2192L145.152 38.1958C145.308 38.3964 145.612 38.4394 145.823 38.2859C146.025 38.1385 146.054 37.86 145.902 37.6655Z" fill="#E60012"/>
<path d="M139.443 39.4512C139.259 39.2793 138.96 39.2793 138.777 39.4512L136.849 41.2467C136.665 41.4187 136.665 41.6972 136.849 41.8671C137.034 42.0391 137.333 42.0391 137.515 41.8671L139.443 40.0716C139.628 39.9017 139.628 39.6232 139.443 39.4512Z" fill="#E60012"/>
<path d="M143.812 39.4512C143.628 39.2793 143.329 39.2793 143.146 39.4512C142.962 39.6232 142.962 39.9017 143.146 40.0716L145.074 41.8671C145.259 42.0391 145.558 42.0391 145.742 41.8671C145.927 41.6951 145.927 41.4167 145.742 41.2467L143.812 39.4512Z" fill="#E60012"/>
<path d="M144.58 38.2982C144.58 38.0545 144.369 37.858 144.108 37.858H141.969V37.5816C141.969 37.3175 141.738 37.1025 141.454 37.1025C141.171 37.1025 140.94 37.3175 140.94 37.5816V37.858H138.48C138.219 37.858 138.008 38.0545 138.008 38.2982C138.008 38.5418 138.219 38.7383 138.48 38.7383H140.94V40.3946C140.94 40.7938 140.593 41.1173 140.164 41.1173H139.656C139.395 41.1173 139.184 41.3139 139.184 41.5575C139.184 41.8011 139.395 41.9977 139.656 41.9977H140.25C141.197 41.9977 141.967 41.2791 141.967 40.3967V38.7404H144.105C144.369 38.7383 144.58 38.5418 144.58 38.2982Z" fill="#E60012"/>
<path d="M137.18 34.6931H138.415V35.0698C138.415 35.3339 138.646 35.5489 138.929 35.5489C139.213 35.5489 139.444 35.3339 139.444 35.0698V34.6931H143.141V35.0698C143.141 35.3339 143.372 35.5489 143.655 35.5489C143.939 35.5489 144.17 35.3339 144.17 35.0698V34.6931H145.405C145.667 34.6931 145.878 34.4966 145.878 34.253C145.878 34.0093 145.667 33.8128 145.405 33.8128H144.17V33.4791C144.17 33.215 143.939 33 143.655 33C143.372 33 143.141 33.215 143.141 33.4791V33.8128H139.444V33.4791C139.444 33.215 139.213 33 138.929 33C138.646 33 138.415 33.215 138.415 33.4791V33.8128H137.18C136.918 33.8128 136.707 34.0093 136.707 34.253C136.707 34.4966 136.92 34.6931 137.18 34.6931Z" fill="#E60012"/>
<path d="M92.8421 33.0088C92.4838 33.0088 92.1914 33.279 92.1914 33.6148C92.1914 33.9506 92.4816 34.2208 92.8421 34.2208C93.2004 34.2208 93.4927 33.9506 93.4927 33.6148C93.4927 33.279 93.2025 33.0088 92.8421 33.0088Z" fill="#E60012"/>
<path d="M92.8637 34.9453C92.5802 34.9453 92.3516 35.1582 92.3516 35.4223V41.4763C92.3516 41.7404 92.5802 41.9533 92.8637 41.9533C93.1473 41.9533 93.3759 41.7404 93.3759 41.4763V35.4223C93.3759 35.1603 93.1473 34.9453 92.8637 34.9453Z" fill="#E60012"/>
<path d="M97.4194 33.0126C97.1666 33.0474 96.9842 33.2603 96.9842 33.4978V40.4116C96.9842 40.7781 96.6654 41.077 96.2698 41.077H96.1423C95.8829 41.077 95.6719 41.2735 95.6719 41.5151C95.6719 41.7567 95.8829 41.9532 96.1423 41.9532H96.2698C97.2018 41.9532 97.9601 41.2715 98.0041 40.4136H98.0063V33.4855C98.0063 33.1989 97.7359 32.9717 97.4194 33.0126Z" fill="#E60012"/>
<path d="M99.5732 36.389C99.5666 36.3214 99.5535 36.1802 99.5315 35.9017C99.5293 35.8792 99.5293 35.8567 99.5293 35.8342C99.5183 35.4964 99.7601 35.4309 99.8942 35.4206H99.9799L100.25 35.4227L100.879 35.4288C101.125 35.4288 101.332 35.263 101.358 35.0439C101.374 34.917 101.332 34.788 101.242 34.6938C101.154 34.6017 101.028 34.5505 100.899 34.5505C100.899 34.5505 99.6766 34.5423 99.571 34.5505C99.2435 34.5792 98.5577 34.7532 98.4962 35.6991C98.4852 35.8833 98.4962 36.0962 98.5401 36.346C98.5423 36.3542 98.5423 36.3603 98.5445 36.3685C98.6192 37.124 98.7665 37.8672 98.9863 38.5858C98.9907 38.6001 98.9951 38.6144 98.9995 38.6267C99.3227 39.6647 99.7909 40.6556 100.402 41.5769C100.573 41.8369 100.932 41.9045 101.18 41.7059C101.376 41.5503 101.415 41.2882 101.283 41.0876C100.362 39.6934 99.7601 38.0985 99.5732 36.389Z" fill="#E60012"/>
<path d="M95.6081 34.5581C95.5224 34.5417 94.1618 34.5581 94.1618 34.5581C94.0321 34.5581 93.9068 34.6113 93.8188 34.7014C93.7287 34.7955 93.687 34.9225 93.7023 35.0515C93.7287 35.2705 93.9353 35.4364 94.1815 35.4364L94.9861 35.4302H95.1773C95.3092 35.4405 95.5378 35.5019 95.5334 35.809C95.4301 37.7396 94.8036 39.5433 93.7771 41.0951C93.6452 41.2958 93.6848 41.5578 93.8804 41.7134C94.131 41.912 94.4871 41.8445 94.6585 41.5844C95.4147 40.44 95.9554 39.1911 96.2654 37.8788C96.3203 37.6475 96.3665 37.4141 96.4083 37.1786C96.4522 36.9022 96.4984 36.5358 96.5445 36.0628C96.5489 35.9932 96.5533 35.9216 96.5555 35.852C96.5687 34.6727 95.6939 34.5744 95.6081 34.5581Z" fill="#E60012"/>
<path d="M143.292 7.38723C144.224 7.38723 144.978 6.63073 144.978 5.69557C144.978 4.76041 144.224 4.00391 143.292 4.00391C142.359 4.00391 141.605 4.76041 141.605 5.69557C141.605 6.62852 142.362 7.38723 143.292 7.38723Z" fill="#E60012"/>
<path d="M63.0019 11.5476C62.8084 10.9565 62.1731 10.6345 61.5818 10.8308L54.1449 13.2944L46.7102 10.8242C46.121 10.6279 45.4857 10.9499 45.2901 11.541C45.0944 12.1321 45.4154 12.7695 46.0045 12.9658L50.566 14.481L46.0023 15.994C45.4132 16.1903 45.0922 16.8277 45.2879 17.4188C45.4439 17.893 45.8836 18.1929 46.354 18.1929C46.4705 18.1929 46.5893 18.1753 46.7058 18.1356L54.1427 15.672L61.5774 18.1422C61.6939 18.1819 61.8126 18.1996 61.9313 18.1996C62.4018 18.1996 62.8414 17.8996 62.9975 17.4254C63.1931 16.8343 62.8722 16.1969 62.283 16.0006L57.7215 14.4854L62.2852 12.9724C62.8766 12.7761 63.1975 12.1387 63.0019 11.5476Z" fill="#E60012"/>
<path d="M54.4174 12.2587C55.3367 12.1095 55.9606 11.241 55.8109 10.3189C55.6613 9.39673 54.7947 8.77012 53.8754 8.91932C52.9562 9.06851 52.3323 9.937 52.4819 10.8592C52.6316 11.7813 53.4981 12.4079 54.4174 12.2587Z" fill="#E60012"/>
<path d="M43.6861 16.1743C44.6173 16.1743 45.3722 15.417 45.3722 14.4827C45.3722 13.5484 44.6173 12.791 43.6861 12.791C42.7549 12.791 42 13.5484 42 14.4827C42 15.417 42.7549 16.1743 43.6861 16.1743Z" fill="#E60012"/>
<path d="M64.6041 16.1743C65.5353 16.1743 66.2902 15.417 66.2902 14.4827C66.2902 13.5484 65.5353 12.791 64.6041 12.791C63.6729 12.791 62.918 13.5484 62.918 14.4827C62.918 15.417 63.6729 16.1743 64.6041 16.1743Z" fill="#E60012"/>
<path d="M65.0428 25.2483C64.5965 25.2483 64.181 25.4865 63.9634 25.8791C63.7414 26.2805 63.3149 26.554 62.8247 26.554H55.4735V25.1975H61.7101C63.4863 25.1975 64.9306 23.7485 64.9306 21.9664C64.9306 20.1843 63.4863 18.7353 61.7101 18.7353H55.4735V18.0626C55.4735 17.4075 54.9437 16.876 54.2908 16.876H54.0006C53.3477 16.876 52.8179 17.4075 52.8179 18.0626V18.7353H46.5813C44.8051 18.7353 43.3608 20.1843 43.3608 21.9664C43.3608 23.7485 44.8051 25.1975 46.5813 25.1975H52.8179V26.554H43.2179C42.5452 26.554 42 27.1009 42 27.7758C42 28.4507 42.5452 28.9977 43.2179 28.9977H62.8774C64.2624 28.9977 65.4736 28.2412 66.1177 27.1164C66.597 26.2849 65.9968 25.2483 65.0428 25.2483ZM61.5474 20.9871C62.0838 20.9871 62.5213 21.426 62.5213 21.9642C62.5213 22.5024 62.0838 22.9413 61.5474 22.9413H55.4735V20.9871H61.5474ZM46.744 22.9413C46.2076 22.9413 45.7701 22.5024 45.7701 21.9642C45.7701 21.426 46.2076 20.9871 46.744 20.9871H52.8201V22.9413H46.744Z" fill="#E60012"/>
<path d="M88.2497 9.39202H83.5343C82.9957 9.39202 82.5604 8.95532 82.5604 8.41496C82.5604 7.8746 82.9957 7.4379 83.5343 7.4379H90.6129C91.2856 7.4379 91.8307 6.89092 91.8307 6.21602C91.8307 5.54112 91.2856 4.99414 90.6129 4.99414H71.8546C71.182 4.99414 70.6368 5.54112 70.6368 6.21602C70.6368 6.89092 71.182 7.4379 71.8546 7.4379H78.9332C79.4718 7.4379 79.9071 7.8746 79.9071 8.41496C79.9071 8.95532 79.4718 9.39202 78.9332 9.39202H74.2178C71.9008 9.39202 70.0234 11.2756 70.0234 13.6002H70.0256V17.4092C70.0256 18.0996 70.584 18.6598 71.2721 18.6598C71.9602 18.6598 72.5185 18.0996 72.5185 17.4092V13.5429C72.5185 12.6011 73.2791 11.8358 74.22 11.8358H79.9093V17.0409C79.9093 17.7753 80.5028 18.3708 81.2349 18.3708C81.9669 18.3708 82.5604 17.7753 82.5604 17.0409V11.8358H88.2497C89.1884 11.8358 89.9512 12.5989 89.9512 13.5429V17.4092C89.9512 18.0996 90.5096 18.6598 91.1976 18.6598C91.8857 18.6598 92.4441 18.0996 92.4441 17.4092V13.6002H92.4463C92.4441 11.2756 90.5667 9.39202 88.2497 9.39202Z" fill="#E60012"/>
<path d="M43.5858 10.8835C44.2739 10.8835 44.8323 10.3233 44.8323 9.633V9.34848C44.8323 8.79488 45.2785 8.34715 45.8303 8.34715H54.0058H54.285H62.4606C63.0123 8.34715 63.4586 8.79488 63.4586 9.34848V9.633C63.4586 10.3233 64.017 10.8835 64.705 10.8835C65.3931 10.8835 65.9515 10.3233 65.9515 9.633V9.34848H65.9493C65.9185 7.44067 64.3709 5.9034 62.4628 5.9034H55.8172C55.826 5.83502 55.8326 5.76445 55.8326 5.69166C55.8326 4.75651 55.0786 4 54.1465 4C53.2144 4 52.4604 4.75651 52.4604 5.69166C52.4604 5.76224 52.467 5.83282 52.4758 5.9034H45.8325C43.9244 5.9034 42.3745 7.44067 42.346 9.34848H42.3438V9.633C42.3416 10.3255 42.8977 10.8835 43.5858 10.8835Z" fill="#E60012"/>
<path d="M74.8537 18.0585C75.2714 18.4776 75.9507 18.4776 76.3705 18.0585L78.1138 16.3095C78.4326 15.9897 78.5293 15.489 78.3073 15.0479C78.2567 14.9465 78.1841 14.8582 78.105 14.7788L76.3727 13.0409C75.9551 12.6218 75.2758 12.6218 74.8559 13.0409C74.4382 13.4599 74.4382 14.1414 74.8559 14.5627L75.8407 15.5508L74.8559 16.5389C74.4338 16.9557 74.4338 17.6372 74.8537 18.0585Z" fill="#E60012"/>
<path d="M87.616 13.0389C87.1983 12.6198 86.519 12.6198 86.0991 13.0389L84.3734 14.7703C84.2679 14.8761 84.1778 14.9996 84.1228 15.1386C83.9558 15.5554 84.0591 16.012 84.3558 16.3097L86.0991 18.0588C86.5168 18.4778 87.1961 18.4778 87.6138 18.0588C88.0314 17.6397 88.0314 16.9582 87.6138 16.5369L86.6289 15.5488L87.6138 14.5607C88.0336 14.1395 88.0336 13.458 87.616 13.0389Z" fill="#E60012"/>
<path d="M89.055 19.4746H88.4856H71.3981C70.7254 19.4746 70.1802 20.0216 70.1802 20.6965C70.1802 21.3714 70.7254 21.9184 71.3981 21.9184H86.0279H88.9451C89.277 21.9184 89.576 22.1919 89.5694 22.5249C89.5672 22.6683 89.51 22.7984 89.4221 22.902C89.3144 23.0278 89.1539 23.1094 88.9759 23.1094H87.6876H86.0257H71.3497C70.7342 23.1094 70.1978 23.5858 70.1802 24.2033C70.1605 24.8429 70.6705 25.3657 71.3036 25.3657H86.0279H87.6898H88.9781C89.1561 25.3657 89.3166 25.4473 89.4243 25.573C89.5122 25.6744 89.5672 25.8046 89.5716 25.9501C89.5782 26.2832 89.2792 26.5567 88.9473 26.5567H86.0301H71.4003C70.7276 26.5567 70.1824 27.1036 70.1824 27.7785C70.1824 28.4534 70.7276 29.0004 71.4003 29.0004H88.4878H89.0572C90.141 29.0004 91.172 28.4556 91.7194 27.5183C91.9853 27.0617 92.137 26.5302 92.137 25.9634V22.5183C92.137 21.9515 91.9853 21.4199 91.7194 20.9634C91.1698 20.0194 90.1366 19.4746 89.055 19.4746Z" fill="#E60012"/>
<path d="M145.765 27.0238C144.732 25.5924 143.872 24.0044 143.158 22.3591C144.459 19.9616 145.31 17.2841 145.596 14.4411C145.668 13.7287 145.108 13.109 144.393 13.109C143.778 13.109 143.257 13.5743 143.195 14.1897C143.019 15.9431 142.599 17.6259 141.971 19.2051C140.997 16.1901 140.425 13.1817 140.093 10.7336H144.393C145.059 10.7336 145.6 10.191 145.6 9.52272C145.6 8.85443 145.059 8.31187 144.393 8.31187H139.819C139.649 6.47022 139.632 5.29907 139.632 5.25055C139.634 4.56683 139.082 4.00882 138.401 4.00662C138.398 4.00662 138.398 4.00662 138.396 4.00662C137.717 4.00662 137.163 4.55801 137.161 5.24173C137.161 5.32333 137.161 6.48346 137.308 8.31187H133.241V8.31628C131.397 8.36039 129.915 9.8734 129.915 11.7327H129.913C129.915 12.0326 129.917 12.3326 129.917 12.6348C129.917 16.1504 129.722 19.6352 129.344 23.0803C129.007 22.8046 128.535 22.7186 128.108 22.8994L127.389 23.2038V10.7314H128.585C129.251 10.7314 129.792 10.1888 129.792 9.52051C129.792 8.85223 129.251 8.30966 128.585 8.30966H127.389V5.32995C127.389 4.5955 126.796 4 126.061 4C125.329 4 124.736 4.5955 124.736 5.32995V8.30966H123.54C122.874 8.30966 122.333 8.85223 122.333 9.52051C122.333 10.1888 122.874 10.7314 123.54 10.7314H124.736V24.333L123.07 25.041C122.456 25.3013 122.168 26.0115 122.428 26.6268C122.687 27.2422 123.395 27.5311 124.008 27.2708L129.045 25.1292C129.062 25.1226 129.08 25.1116 129.097 25.105C128.99 25.921 128.875 26.7349 128.748 27.5465C128.627 28.3053 129.212 28.9934 129.979 28.9934C130.594 28.9934 131.115 28.5434 131.212 27.9325C131.856 23.8588 132.239 19.7212 132.362 15.5373H133.975C134.527 15.5373 134.973 15.985 134.973 16.5386V22.7825C134.973 23.1972 134.723 23.5523 134.364 23.7045C134.334 23.7177 134.305 23.7309 134.274 23.7375C134.235 23.7442 134.195 23.7508 134.151 23.7574C133.54 23.839 133.081 24.3529 133.081 24.9704C133.081 25.6696 133.665 26.2276 134.362 26.1923C134.452 26.1879 134.521 26.1835 134.556 26.1769C136.185 25.9034 137.429 24.4896 137.447 22.7803H137.449V16.5364H137.447C137.416 14.6418 135.877 13.1156 133.98 13.1156H132.408C132.408 12.9546 132.412 12.7958 132.412 12.6348C132.412 12.3348 132.41 12.0348 132.408 11.7327H132.41C132.41 11.1791 132.856 10.7314 133.408 10.7314H137.561C137.662 11.5364 137.787 12.401 137.943 13.3141C138.504 16.5651 139.35 19.5779 140.423 22.2532C139.421 23.8456 138.187 25.2748 136.769 26.4945C136.235 26.9532 136.202 27.7693 136.699 28.27C137.148 28.7199 137.864 28.7419 138.343 28.3295C139.55 27.2907 140.636 26.1195 141.584 24.8359C142.252 26.1659 142.982 27.3877 143.767 28.4773C144.009 28.8125 144.384 28.989 144.767 28.989C145.018 28.989 145.273 28.9118 145.49 28.753C146.042 28.3538 146.165 27.5796 145.765 27.0238Z" fill="#E60012"/>
<path d="M97.8189 4.00391C96.8868 4.00391 96.1328 4.76041 96.1328 5.69557C96.1328 6.63073 96.8868 7.38723 97.8189 7.38723C98.751 7.38723 99.505 6.63073 99.505 5.69557C99.505 4.76041 98.7488 4.00391 97.8189 4.00391Z" fill="#E60012"/>
<path d="M97.8646 9.41895C97.1326 9.41895 96.5391 10.0144 96.5391 10.7489V27.6633C96.5391 28.3978 97.1326 28.9933 97.8646 28.9933C98.5967 28.9933 99.1902 28.3978 99.1902 27.6633V10.7489C99.1924 10.0144 98.5967 9.41895 97.8646 9.41895Z" fill="#E60012"/>
<path d="M109.683 4.01782C109.026 4.11266 108.553 4.70816 108.553 5.37645V24.6949C108.553 25.7205 107.724 26.552 106.702 26.552H106.37C105.698 26.552 105.152 27.099 105.152 27.7739C105.152 28.4488 105.698 28.9958 106.37 28.9958H106.702C109.116 28.9958 111.088 27.0902 111.202 24.6949H111.209V5.33454C111.207 4.53613 110.503 3.90093 109.683 4.01782Z" fill="#E60012"/>
<path d="M115.276 13.451C115.261 13.2613 115.228 12.8688 115.166 12.0902C115.162 12.0284 115.162 11.9645 115.158 11.9005C115.131 10.9565 115.758 10.7735 116.105 10.747H116.327L117.028 10.7514L118.657 10.7669C119.297 10.7669 119.831 10.3037 119.902 9.68834C119.943 9.33104 119.833 8.97595 119.598 8.71128C119.372 8.45543 119.046 8.30766 118.708 8.30766C118.708 8.30766 115.536 8.28119 115.265 8.30766C114.417 8.38927 112.636 8.87449 112.48 11.519C112.449 12.0351 112.48 12.6306 112.592 13.3253C112.597 13.3474 112.599 13.365 112.603 13.3871C112.797 15.5 113.179 17.571 113.751 19.5803C113.762 19.62 113.775 19.6575 113.786 19.6972C114.621 22.5953 115.841 25.3654 117.42 27.9415C117.866 28.6694 118.794 28.8546 119.44 28.301C119.948 27.8666 120.049 27.1365 119.706 26.5763C117.321 22.6835 115.762 18.2261 115.276 13.451Z" fill="#E60012"/>
<path d="M104.991 8.33406C104.769 8.28775 101.238 8.33406 101.238 8.33406C100.9 8.33406 100.577 8.48183 100.348 8.73768C100.115 9.00014 100.003 9.35744 100.045 9.71474C100.115 10.3301 100.651 10.7933 101.289 10.7933L103.373 10.7756H103.868C104.211 10.8043 104.804 10.9785 104.791 11.8365C104.525 17.2335 102.896 22.2688 100.236 26.6027C99.8931 27.1629 99.9942 27.8952 100.502 28.3274C101.15 28.881 102.076 28.6958 102.522 27.9679C104.483 24.7721 105.886 21.2807 106.69 17.6128C106.833 16.9666 106.954 16.3138 107.06 15.6565C107.172 14.8868 107.295 13.8634 107.411 12.5379C107.424 12.3416 107.431 12.1453 107.442 11.9468C107.486 8.65387 105.215 8.38038 104.991 8.33406Z" fill="#E60012"/>
<path d="M11.043 15.1874C11.043 11.5511 13.8933 8.46345 17.8515 7.35742C17.858 7.35962 17.8646 7.36401 17.8733 7.3662C18.678 7.62735 19.8448 7.77657 21.0726 7.77657C22.3004 7.77657 23.4671 7.62735 24.2719 7.3662C24.2784 7.36401 24.2849 7.36181 24.2937 7.35742C28.254 8.46345 31.1022 11.5511 31.1022 15.1874C31.1022 19.752 26.6119 23.4541 21.0726 23.4541C15.5355 23.4541 11.043 19.752 11.043 15.1874Z" fill="white"/>
<path d="M19.6262 11.9767C19.3187 11.2482 18.7386 10.7588 18.0734 10.7588C17.8793 10.7588 17.6918 10.8005 17.5151 10.8795C17.4083 10.9124 17.3036 10.9673 17.2033 11.0419C16.7148 11.4062 16.3658 12.0865 16.2982 12.8875C16.2961 12.9138 16.2939 12.9423 16.2917 12.9687C16.2895 12.9884 16.2895 13.006 16.2895 13.0257C16.2873 13.0762 16.2852 13.1245 16.2852 13.1749C16.2852 13.9891 16.5403 14.6123 17.0179 15.0886C17.4999 15.567 18.2741 15.5626 18.6753 14.9613C18.9545 14.5421 19.0483 13.8092 19.009 13.3395L18.4376 12.9906L18.9698 12.5407C18.9392 12.1238 18.7975 11.7288 18.6143 11.4303C18.8738 11.5773 19.0941 11.8275 19.2467 12.1435C19.3012 12.2576 19.443 12.2993 19.5477 12.2291C19.6327 12.1764 19.6654 12.0689 19.6262 11.9767Z" fill="#0B318F"/>
<path d="M25.4189 14.7433C24.9522 14.7258 24.3786 14.6336 23.7287 14.3396C23.2424 14.1201 22.8804 14.0104 22.7277 13.9709C22.7125 13.9665 22.6972 13.9621 22.6841 13.9599C22.6623 13.9533 22.6492 13.9511 22.6492 13.9511C22.5445 13.9292 22.4377 13.916 22.3264 13.916C21.489 13.916 20.8086 14.5985 20.8086 15.4434C20.8086 16.161 21.3015 16.7645 21.9666 16.9269C23.4452 17.3109 25.4407 16.466 26.1669 15.6475C26.8931 14.8311 25.9117 14.7631 25.4189 14.7433Z" fill="#F39800"/>
<path d="M36.8238 38.5979L36.8172 38.576C36.5817 37.6389 36.1804 36.3354 35.9732 35.6748C36.163 35.4795 36.3287 35.2579 36.4683 35.0121C37.1792 33.7459 37.1182 31.9398 36.2938 29.9274C35.3582 27.6407 33.8796 26.1968 32.9048 25.4682C32.521 23.8311 31.6792 23.0871 31.3521 22.8501C31.2648 22.7887 31.1972 22.7031 31.1558 22.6021C30.9094 21.9987 30.5844 21.6431 30.3423 21.4434C30.2507 21.3688 30.0196 21.1889 29.7208 21.0155C30.338 20.3681 30.8483 19.6549 31.243 18.8868C31.8427 17.7172 32.1481 16.4729 32.1481 15.1869C32.1481 13.9009 31.8427 12.6566 31.243 11.487C30.6716 10.3743 29.8582 9.37803 28.8267 8.52876C27.6905 7.5917 26.3536 6.88727 24.899 6.43959C24.9077 6.07749 25.0015 5.7944 25.032 5.71321C25.0386 5.69784 25.0429 5.68248 25.0495 5.66493L25.0582 5.63859L25.0669 5.61665C25.0865 5.56398 25.1062 5.51131 25.1236 5.45645L25.3221 4.88149L25.5402 4.24947C26.286 3.98613 26.8072 3.23561 26.7222 2.37975C26.6393 1.55022 25.9807 0.876508 25.1563 0.784338C24.0856 0.66364 23.1761 1.50853 23.1761 2.56189C23.1761 2.68259 23.1892 2.80109 23.211 2.9174C23.1085 3.04029 22.9908 3.15221 22.8861 3.18733C22.8774 3.19171 22.8708 3.19171 22.8665 3.19391C22.8294 3.17855 22.7291 3.10174 22.6048 2.90204C22.8665 2.51142 22.9777 2.02204 22.8883 1.52389C22.74 0.698753 22.0421 0.0689285 21.2112 0.0052877C20.1274 -0.0759091 19.2179 0.788727 19.2179 1.86184C19.2179 2.2393 19.3314 2.5992 19.532 2.89984C19.4099 3.09955 19.3074 3.17635 19.2703 3.19171C19.2659 3.19171 19.2594 3.18952 19.2507 3.18513C19.1482 3.14782 19.0282 3.0381 18.9257 2.91521C18.9497 2.7989 18.9606 2.68039 18.9606 2.5597C18.9606 1.50633 18.0512 0.661446 16.9804 0.782144C16.1561 0.874313 15.4975 1.54803 15.4146 2.37755C15.3295 3.23341 15.8508 3.98393 16.5966 4.24727L16.8147 4.87929L17.0131 5.45425C17.0306 5.50692 17.0502 5.56178 17.0698 5.61445L17.0786 5.6364L17.0873 5.66273C17.0938 5.67809 17.0982 5.69565 17.1047 5.71101C17.1353 5.79221 17.229 6.0731 17.2378 6.4352C15.7831 6.88288 14.4463 7.58951 13.3101 8.52657C12.2786 9.37803 11.4651 10.3721 10.8937 11.4848C10.294 12.6544 9.98869 13.8987 9.98869 15.1847C9.98869 16.4707 10.294 17.715 10.8937 18.8846C11.2383 19.554 11.6701 20.1816 12.1848 20.761C11.6112 21.0835 11.1489 21.5707 10.8763 22.1457C10.8152 22.273 10.7193 22.3761 10.5928 22.4376C10.2002 22.6307 9.30173 23.1617 8.78488 24.1888C8.33345 24.1976 7.77734 24.1471 7.22559 23.9342C7.22122 23.932 7.04676 23.8662 6.98788 23.8398L6.86139 22.082C6.96389 22.0096 7.05984 21.9306 7.14708 21.8407C7.55707 21.4303 7.76207 20.9036 7.72282 20.3572C7.69883 20.0214 7.58324 19.712 7.39787 19.4464C7.41532 19.4091 7.4284 19.3696 7.43277 19.3279L8.7478 9.66552C8.77179 9.63479 8.7936 9.60188 8.81541 9.56896C9.12509 9.10153 9.19051 8.4739 8.98769 7.92966C8.8503 7.55879 8.59515 7.26911 8.27238 7.09794C8.32908 6.88288 8.34871 6.66562 8.32472 6.44178C8.22877 5.56617 7.49601 4.94952 7.22122 4.74762C7.41314 4.1551 7.34771 3.66792 7.23213 3.32339C6.92027 2.40169 6.03486 1.82234 5.37188 1.60508C5.13854 1.52828 5.01641 1.3988 4.97716 1.18593C4.94008 0.986233 4.98806 0.797505 4.98806 0.797505C5.03386 0.641695 4.9946 0.472718 4.88774 0.35202C4.78088 0.231322 4.6195 0.17207 4.4603 0.198404C4.39924 0.209377 2.94026 0.455162 2.20314 1.64459C1.83895 2.23271 1.71682 2.93276 1.84113 3.73156C1.87384 3.94443 1.79533 4.15949 1.63177 4.29994C1.2305 4.64667 0.765981 5.19091 0.698375 5.88218C0.661301 6.26403 0.687471 6.68098 0.879384 7.05186C-0.112892 7.72118 -0.13252 8.94572 0.174977 9.57774C0.275295 9.78402 0.438857 10.0298 0.696194 10.2602L3.37861 19.6242C3.39169 19.6681 3.40914 19.7076 3.43313 19.7449C3.29138 20.0324 3.22159 20.3528 3.24558 20.6841C3.29574 21.3688 3.72754 21.946 4.34472 22.2642L4.39487 22.962L4.12881 22.9884C3.78206 23.0235 3.45494 23.1376 3.18015 23.3154C2.17043 23.9759 2.03304 25.2619 2.22277 26.1638C2.38633 26.9363 2.82468 27.6605 3.53127 28.321C3.7319 28.5076 4.3578 29.0145 4.84412 29.2208L5.4046 37.0113C5.24758 37.538 5.08838 38.0998 4.97061 38.5716L4.96407 38.5935C4.7787 39.3309 4.46902 40.5642 5.68156 41.6658C5.70119 41.6834 5.72082 41.6988 5.74044 41.7163L5.96289 44.8237C5.98688 45.1617 6.14172 45.4689 6.39469 45.6906C6.62586 45.8925 6.91373 46 7.21686 46C7.24739 46 7.27793 46 7.31064 45.9956C7.67266 45.9693 7.99978 45.7915 8.22222 45.4997C8.41414 45.2473 8.49701 44.9291 8.4752 44.6109L8.35089 42.8948C9.31482 43.1362 10.2417 43.349 11.0617 43.5378C11.5654 43.6541 12.1695 43.8033 12.6995 43.9394C13.4518 44.1303 14.1824 44.398 14.889 44.7206C16.7296 45.5567 18.7709 46 20.8863 46C22.9995 46 25.0429 45.5567 26.8836 44.7206C27.5901 44.4002 28.3207 44.1303 29.0731 43.9394C29.6009 43.8055 30.2071 43.6541 30.7109 43.5378C31.5353 43.349 32.4686 43.134 33.4413 42.8904C34.6516 42.5853 35.5174 42.1859 36.091 41.6658C37.3188 40.5686 37.0091 39.3353 36.8238 38.5979ZM30.2965 23.1837C30.3772 23.4251 30.6891 23.6292 30.8941 23.8201C31.2103 24.1142 31.6835 24.8274 31.6857 25.0117C30.6193 25.1236 29.4177 25.2312 28.2967 25.2312C28.0721 25.2312 27.8497 25.2268 27.6316 25.218C26.4147 25.1631 25.1433 24.6233 24.3472 24.0922C26.0178 23.6599 27.5509 22.8984 28.8288 21.845C28.8637 21.8143 28.9008 21.7858 28.9357 21.7551C29.1952 21.867 29.4831 22.0491 29.7055 22.2313C29.7928 22.3037 30.0915 22.5648 30.2965 23.1837ZM17.192 3.43969C16.71 3.43969 16.3174 3.04688 16.3174 2.5597C16.3174 2.07471 16.7078 1.6797 17.192 1.6797C17.6739 1.6797 18.0665 2.07252 18.0665 2.5597C18.0665 2.73306 18.0163 2.89546 17.9291 3.03152H17.9313C17.9313 3.03152 18.3173 3.81496 18.9562 4.04318C19.0675 4.08269 19.1765 4.10244 19.2812 4.10244C19.8373 4.10244 20.3127 3.57136 20.6246 2.70234C20.328 2.53995 20.1274 2.22613 20.1274 1.86404C20.1274 1.33735 20.5526 0.91162 21.076 0.91162C21.5994 0.91162 22.0225 1.33955 22.0225 1.86404C22.0225 2.22613 21.8219 2.54214 21.5253 2.70234C21.8371 3.57356 22.3125 4.10244 22.8687 4.10244C22.9733 4.10244 23.0824 4.08269 23.1936 4.04318C23.8326 3.81496 24.2186 3.03152 24.2186 3.03152H24.2208C24.1335 2.89546 24.0834 2.73306 24.0834 2.5597C24.0834 2.07471 24.4737 1.6797 24.9579 1.6797C25.4398 1.6797 25.8324 2.07252 25.8324 2.5597C25.8324 3.04468 25.442 3.43969 24.9579 3.43969C24.9274 3.43969 24.899 3.4375 24.8706 3.43531L24.4737 4.58303L24.2753 5.15799C24.2557 5.21286 24.236 5.26991 24.2142 5.32478C24.2055 5.34892 24.1968 5.37306 24.188 5.3972C24.1292 5.5574 23.9983 5.97435 23.9983 6.50103C23.307 6.72487 22.2558 6.86752 21.076 6.86752C19.8962 6.86752 18.8428 6.72487 18.1537 6.50103C18.1537 5.97435 18.0229 5.55959 17.964 5.3972C17.9552 5.37306 17.9465 5.34892 17.9378 5.32478C17.9182 5.26991 17.8964 5.21286 17.8767 5.15799L17.6783 4.58303L17.2814 3.43531C17.2508 3.4375 17.2225 3.43969 17.192 3.43969ZM11.0442 15.1869C11.0442 11.5506 13.8946 8.46292 17.8528 7.35689C17.8593 7.35909 17.8658 7.36348 17.8746 7.36567C18.6793 7.62682 19.846 7.77604 21.0738 7.77604C22.3016 7.77604 23.4684 7.62682 24.2731 7.36567C24.2796 7.36348 24.2862 7.36128 24.2949 7.35689C28.2553 8.46292 31.1034 11.5506 31.1034 15.1869C31.1034 19.7515 26.6131 23.4536 21.0738 23.4536C15.5367 23.4536 11.0442 19.7515 11.0442 15.1869ZM10.9286 23.4339C11.4237 23.1617 11.6134 23.1179 11.6985 22.8435C11.8904 22.2203 12.3941 21.7529 12.9503 21.5246C13.0702 21.6344 13.1945 21.7397 13.321 21.845C14.6426 22.9335 16.2368 23.7126 17.9705 24.1361C17.5387 24.406 16.9761 24.6716 16.4243 24.7769C16.0318 24.8515 15.5956 24.8888 15.1638 24.8888C14.7909 24.8888 14.4201 24.8603 14.0799 24.8054C13.4431 24.6979 12.6689 24.4324 12.2001 24.3139C11.7901 24.2085 11.0355 24.0439 10.1719 24.0286C10.1697 24.0264 10.3442 23.7521 10.9286 23.4339ZM1.03422 9.14322C0.970978 9.01375 0.957893 8.86891 0.957893 8.72627C0.957893 8.48268 1.03422 8.26103 1.17379 8.06352C1.22832 7.98672 1.29156 7.9121 1.35917 7.84627C1.39406 7.81116 1.52491 7.65973 1.57943 7.69046C1.80405 7.81554 2.01123 7.85944 2.1966 7.81993C2.32963 7.79141 2.44522 7.65973 2.45176 7.52806C2.45612 7.45784 2.37107 7.38981 2.29692 7.33056L2.28384 7.31959C1.76044 6.90263 1.54017 6.64807 1.61868 5.97435C1.69065 5.35769 2.40814 4.83101 2.67856 4.68179C2.85957 4.58084 2.94899 4.36358 2.88792 4.16608C2.63495 3.34094 2.66766 2.65845 2.98606 2.14054C3.26085 1.69067 3.71228 1.42952 4.0394 1.28908C4.04812 1.28469 4.05903 1.28469 4.06775 1.29127C4.07647 1.29566 4.08302 1.30444 4.0852 1.31541C4.13972 1.64678 4.34472 2.2371 5.10146 2.48508C5.58561 2.64309 6.19188 3.06882 6.38161 3.62842C6.5299 4.06513 6.41868 4.55889 6.05012 5.09874L6.03049 5.12727C5.89528 5.32697 5.75353 5.53106 5.85167 5.60129C5.94544 5.66712 6.37725 5.61445 6.63894 5.48059C6.64985 5.474 6.66293 5.4762 6.67384 5.48278C6.93118 5.66273 7.38043 6.09066 7.43058 6.5559C7.46548 6.89166 7.33245 7.23619 7.03149 7.57854C6.92681 7.69924 6.88102 7.78921 6.89628 7.85285C6.90719 7.89674 6.94862 7.93185 7.02059 7.96258C7.10128 7.99549 7.47638 7.98013 7.66393 7.85944C7.67266 7.85285 7.68574 7.85285 7.69446 7.85724C7.97143 7.97794 8.17643 8.20617 8.18297 8.52437C8.18733 8.72627 8.12627 8.87769 8.02595 9.02472C7.80132 9.35609 7.37606 9.56457 7.01841 9.70502C6.38597 9.95519 5.57906 10.1264 4.74599 10.1878C3.72754 10.2624 2.73527 10.1659 2.0265 9.92447C1.54454 9.75769 1.20215 9.48776 1.03422 9.14322ZM1.79097 10.8593C2.43431 11.0678 3.22159 11.1775 4.06775 11.1775C4.31418 11.1775 4.56498 11.1688 4.81796 11.149C5.75571 11.081 6.63894 10.8922 7.36734 10.6026C7.50037 10.5499 7.63558 10.4928 7.77079 10.427L6.59969 19.0405C6.15044 19.3828 5.60741 19.5101 4.98152 19.4179C4.63695 19.3674 4.3469 19.2621 4.18115 19.1897L1.79097 10.8593ZM4.63913 27.9216C3.84749 27.3072 3.37207 26.6444 3.22595 25.9554C3.10164 25.3694 3.16489 24.5509 3.74499 24.1712C3.88456 24.0791 4.05685 24.022 4.2444 24.0022C4.25966 24 4.27275 23.9979 4.28801 23.9957C4.95753 25.455 4.80487 27.0526 4.63913 27.9216ZM4.13318 20.6227C4.12009 20.4559 4.15716 20.2957 4.22695 20.1487C4.53227 20.2452 4.92918 20.333 5.36534 20.333C5.79496 20.333 6.26602 20.2474 6.724 20.0038C6.80033 20.1311 6.8483 20.2738 6.85921 20.4252C6.87884 20.7105 6.76543 20.9936 6.53863 21.2196C6.29437 21.4632 5.95198 21.6146 5.5747 21.641C4.8245 21.6958 4.17679 21.2394 4.13318 20.6227ZM7.58106 45.0344C7.50255 45.1266 7.39133 45.1836 7.2692 45.1924C7.14708 45.2012 7.03149 45.1617 6.9399 45.0827C6.8483 45.0037 6.7916 44.8918 6.78288 44.7689L5.55944 27.7417C5.69465 26.8375 5.75571 25.5011 5.30428 24.1778L5.18433 22.5122C5.27375 22.5209 5.36534 22.5275 5.45694 22.5275C5.518 22.5275 5.57906 22.5253 5.64013 22.5209C5.79496 22.51 5.94544 22.4836 6.09156 22.4463L7.69228 44.703C7.69883 44.8237 7.65957 44.9422 7.58106 45.0344ZM11.3081 42.5173C10.4881 42.3286 9.56125 42.1157 8.59951 41.8743C8.49265 41.848 8.38797 41.8195 8.28547 41.7909L7.9518 37.1561C8.09792 37.6104 8.27238 38.0581 8.47738 38.497C9.16434 39.9695 10.1457 41.2906 11.3931 42.423C11.4498 42.4756 11.5087 42.5261 11.5676 42.5766C11.4847 42.5568 11.3975 42.5371 11.3081 42.5173ZM20.9015 44.8501C14.0908 44.8501 8.54935 39.8247 8.54935 33.6493C8.54935 31.8674 8.99642 30.1644 9.87965 28.5866C9.91455 28.5251 9.91236 28.433 9.87965 28.3847C9.84694 28.3386 9.7837 28.3166 9.71609 28.3254C9.56343 28.3474 9.35625 28.5054 9.17961 28.6524C8.77179 28.9926 8.51445 29.3766 8.2702 29.7519C7.97143 29.708 7.64649 29.5939 7.4066 29.4973L7.07947 24.959C7.65521 25.15 8.21786 25.2092 8.69764 25.2092C9.46311 25.2092 10.0127 25.0578 10.0498 25.0468C10.0541 25.0446 10.0607 25.0424 10.065 25.0424L10.1566 25.0446C10.7258 25.0534 11.3299 25.139 11.9536 25.2992C12.0888 25.3343 12.2677 25.387 12.4574 25.4418C12.8892 25.5691 13.4257 25.7271 13.912 25.8083C14.3067 25.8742 14.7254 25.9071 15.1638 25.9071C15.6654 25.9071 16.1648 25.8632 16.614 25.7776C17.5583 25.5977 18.4721 25.0754 19.013 24.6474L19.3357 24.3907C19.9071 24.4653 20.4894 24.5048 21.0782 24.5048C21.7368 24.5048 22.3845 24.4565 23.0191 24.3621L23.4531 24.7001C24.3712 25.4133 26.0069 26.166 27.588 26.2363C27.8126 26.2472 28.0525 26.2516 28.2967 26.2516C29.4809 26.2516 30.7262 26.1375 31.7904 26.0256L31.8624 26.019C32.5515 26.4381 34.3027 27.8141 35.3299 30.3268C36.5032 33.1928 35.8206 35.1108 34.222 35.5124C34.2286 35.4664 34.2373 35.4225 34.2438 35.3764C34.3943 34.312 34.4292 33.1709 34.1479 32.1131C34.1173 31.9946 34.0803 31.8783 34.041 31.762C33.9233 31.4197 33.7815 31.0839 33.5918 30.7767C33.4696 30.5792 33.1294 29.9801 32.8285 30.114C32.7064 30.1688 32.702 30.3268 32.7369 30.4322C33.0815 31.4724 33.2559 32.5564 33.2559 33.6515C33.2537 39.8246 27.7123 44.8501 20.9015 44.8501ZM35.404 40.889C34.9679 41.2862 34.2264 41.6176 33.2014 41.8743C32.2397 42.1157 31.3128 42.3286 30.4928 42.5173C30.4056 42.5371 30.3183 42.5568 30.2311 42.5766C30.29 42.5261 30.3489 42.4734 30.4056 42.423C31.653 41.2906 32.6344 39.9695 33.3213 38.497C33.6027 37.8935 33.8273 37.2637 33.993 36.6185C34.0454 36.6141 34.0977 36.6075 34.1479 36.5987C34.4794 36.5483 34.7912 36.4517 35.0791 36.3156C35.295 37.0091 35.609 38.0559 35.8053 38.8349L35.8119 38.8569C35.9863 39.5525 36.1521 40.2109 35.404 40.889Z" fill="#231815"/>
<path d="M30.2969 23.1835C30.3776 23.4249 30.6895 23.629 30.8945 23.8199C31.2107 24.114 31.684 24.8272 31.6861 25.0115C30.6197 25.1235 29.4181 25.231 28.2971 25.231C28.0725 25.231 27.8501 25.2266 27.632 25.2178C26.4151 25.163 25.1437 24.6231 24.3477 24.092C26.0182 23.6597 27.5513 22.8982 28.8293 21.8449C28.8641 21.8141 28.9012 21.7856 28.9361 21.7549C29.1956 21.8668 29.4835 22.0489 29.7059 22.2311C29.7932 22.3035 30.092 22.5647 30.2969 23.1835Z" fill="#E60012"/>
<path d="M17.1909 3.43945C16.709 3.43945 16.3164 3.04663 16.3164 2.55945C16.3164 2.07446 16.7068 1.67945 17.1909 1.67945C17.6751 1.67945 18.0654 2.07227 18.0654 2.55945C18.0654 2.73282 18.0153 2.89521 17.928 3.03127H17.9302C17.9302 3.03127 18.3162 3.81471 18.9552 4.04294C19.0664 4.08244 19.1755 4.10219 19.2801 4.10219C19.8363 4.10219 20.3117 3.57112 20.6235 2.6999C20.3269 2.53751 20.1263 2.22369 20.1263 1.8616C20.1263 1.33491 20.5516 0.90918 21.0728 0.90918C21.5962 0.90918 22.0193 1.33711 22.0193 1.8616C22.0193 2.22369 21.8186 2.5397 21.522 2.6999C21.8339 3.57112 22.3093 4.10219 22.8654 4.10219C22.9701 4.10219 23.0791 4.08244 23.1904 4.04294C23.8294 3.81471 24.2154 3.03127 24.2154 3.03127H24.2175C24.1303 2.89521 24.0801 2.73282 24.0801 2.55945C24.0801 2.07446 24.4705 1.67945 24.9547 1.67945C25.4366 1.67945 25.8292 2.07227 25.8292 2.55945C25.8292 3.04444 25.4388 3.43945 24.9547 3.43945C24.9241 3.43945 24.8958 3.43725 24.8674 3.43506L24.4705 4.58279L24.2721 5.15775C24.2524 5.21261 24.2328 5.26967 24.211 5.32453C24.2023 5.34867 24.1935 5.37281 24.1848 5.39695C24.1259 5.55715 23.9951 5.97411 23.9951 6.50079C23.3038 6.72463 22.2526 6.86727 21.0728 6.86727C19.893 6.86727 18.8396 6.72463 18.1505 6.50079C18.1505 5.97411 18.0196 5.55934 17.9607 5.39695C17.952 5.37281 17.9433 5.34867 17.9346 5.32453C17.915 5.26967 17.8931 5.21261 17.8735 5.15775L17.6751 4.58279L17.2782 3.43506C17.2498 3.43725 17.2214 3.43945 17.1909 3.43945Z" fill="white"/>
<path d="M10.9286 23.4336C11.4237 23.1615 11.6134 23.1176 11.6985 22.8433C11.8904 22.2201 12.3941 21.7526 12.9503 21.5244C13.0702 21.6341 13.1945 21.7395 13.321 21.8448C14.6426 22.9333 16.2368 23.7123 17.9705 24.1359C17.5387 24.4058 16.9761 24.6713 16.4243 24.7767C16.0318 24.8513 15.5956 24.8886 15.1638 24.8886C14.7909 24.8886 14.4201 24.8601 14.0799 24.8052C13.4431 24.6977 12.6689 24.4321 12.2001 24.3136C11.7901 24.2083 11.0355 24.0437 10.1719 24.0283C10.1697 24.0262 10.3442 23.7518 10.9286 23.4336Z" fill="#E60012"/>
<path d="M1.03336 9.1431C0.970116 9.01362 0.957031 8.86878 0.957031 8.72614C0.957031 8.48255 1.03336 8.26091 1.17293 8.0634C1.22745 7.98659 1.2907 7.91198 1.3583 7.84614C1.3932 7.81103 1.52405 7.65961 1.57857 7.69033C1.80319 7.81542 2.01037 7.85931 2.19574 7.81981C2.32877 7.79128 2.44435 7.65961 2.4509 7.52794C2.45526 7.45772 2.37021 7.38969 2.29606 7.33043L2.28297 7.31946C1.75958 6.9025 1.53931 6.64794 1.61782 5.97423C1.68979 5.35757 2.40728 4.83089 2.6777 4.68166C2.86089 4.58071 2.94813 4.36346 2.88706 4.16595C2.63409 3.34082 2.6668 2.65832 2.9852 2.14042C3.25998 1.69055 3.71141 1.4294 4.03854 1.29114C4.04726 1.28676 4.05817 1.28676 4.06689 1.29334C4.07561 1.29773 4.08215 1.30651 4.08434 1.31748C4.13886 1.64885 4.34385 2.23917 5.1006 2.48715C5.58474 2.64516 6.19101 3.07089 6.38074 3.63049C6.52904 4.0672 6.41782 4.56096 6.04926 5.10081L6.02963 5.12934C5.89442 5.32904 5.75267 5.53313 5.8508 5.60335C5.94458 5.66919 6.37638 5.61652 6.63808 5.48266C6.64899 5.47607 6.66207 5.47827 6.67298 5.48485C6.93031 5.6648 7.37956 6.09273 7.42972 6.55797C7.46462 6.89373 7.33158 7.23826 7.03063 7.58061C6.92595 7.70131 6.88015 7.79128 6.89542 7.85492C6.90632 7.89881 6.94776 7.93392 7.01973 7.96465C7.10042 7.99756 7.47552 7.9822 7.66307 7.8615C7.67179 7.85492 7.68488 7.85492 7.6936 7.85931C7.97057 7.98001 8.17556 8.20824 8.18211 8.52644C8.18647 8.72834 8.12541 8.87976 8.02509 9.02679C7.80046 9.35816 7.3752 9.56664 7.01755 9.70709C6.38511 9.95726 5.5782 10.1284 4.74513 10.1899C3.72668 10.2645 2.7344 10.1679 2.02564 9.92654C1.54367 9.75756 1.20128 9.48764 1.03336 9.1431Z" fill="white"/>
<path d="M1.78906 10.8591C2.43241 11.0676 3.21968 11.1773 4.06584 11.1773C4.31228 11.1773 4.56307 11.1685 4.81605 11.1488C5.7538 11.0807 6.63704 10.892 7.36543 10.6023C7.49846 10.5497 7.63368 10.4926 7.76889 10.4268L6.59778 19.0402C6.14853 19.3825 5.60551 19.5076 4.97961 19.4177C4.63504 19.3672 4.34499 19.2619 4.17925 19.1894L1.78906 10.8591Z" fill="#FAC02C"/>
<path d="M4.63824 27.9221C3.8466 27.3076 3.37118 26.6449 3.22507 25.9558C3.10076 25.3699 3.164 24.5513 3.7441 24.1717C3.88368 24.0795 4.05596 24.0224 4.24351 24.0027C4.25878 24.0005 4.27186 23.9983 4.28713 23.9961C4.95664 25.4554 4.80399 27.053 4.63824 27.9221Z" fill="white"/>
<path d="M4.13541 20.6228C4.12233 20.456 4.1594 20.2958 4.22919 20.1487C4.5345 20.2453 4.93141 20.3331 5.36758 20.3331C5.7972 20.3331 6.26826 20.2475 6.72623 20.0039C6.80256 20.1312 6.85054 20.2738 6.86363 20.4253C6.88325 20.7105 6.76985 20.9936 6.54304 21.2197C6.29879 21.4633 5.9564 21.6147 5.57912 21.641C4.82673 21.6959 4.17903 21.2394 4.13541 20.6228Z" fill="#FAC02C"/>
<path d="M7.58032 45.0344C7.50181 45.1265 7.39059 45.1836 7.26846 45.1924C7.14634 45.2012 7.03075 45.1616 6.93916 45.0826C6.84756 45.0036 6.79086 44.8917 6.78214 44.7688L5.5587 27.7416C5.69391 26.8375 5.75497 25.501 5.30354 24.1778L5.18359 22.5121C5.27301 22.5231 5.3646 22.5275 5.4562 22.5275C5.51726 22.5275 5.57832 22.5253 5.63939 22.5209C5.79422 22.5099 5.9447 22.4836 6.09082 22.4463L7.69154 44.703C7.69809 44.8237 7.65883 44.9422 7.58032 45.0344Z" fill="#FAC02C"/>
<path d="M11.3094 42.5174C10.4894 42.3287 9.56257 42.1158 8.60083 41.8744C8.49397 41.8481 8.38929 41.8196 8.28679 41.7911L7.95312 37.1562C8.09924 37.6105 8.27371 38.0582 8.4787 38.4971C9.16566 39.9696 10.147 41.2907 11.3945 42.4231C11.4512 42.4757 11.5101 42.5262 11.5689 42.5767C11.4861 42.5569 11.3988 42.5372 11.3094 42.5174Z" fill="#E60012"/>
<path d="M20.9002 44.8502C14.0895 44.8502 8.548 39.8248 8.548 33.6495C8.548 31.8675 8.99507 30.1646 9.87831 28.5867C9.9132 28.5231 9.91102 28.4331 9.87831 28.3848C9.84559 28.3388 9.78235 28.3146 9.71474 28.3256C9.56209 28.3475 9.35273 28.5055 9.17826 28.6526C8.77045 28.9927 8.51311 29.3768 8.26886 29.752C7.97008 29.7081 7.64514 29.594 7.40525 29.4975L7.07812 24.9592C7.65386 25.1501 8.21652 25.2094 8.6963 25.2094C9.46177 25.2094 10.0113 25.058 10.0484 25.047C10.0528 25.0448 10.0593 25.0426 10.0637 25.0426L10.1553 25.0448C10.7245 25.0536 11.3286 25.1392 11.9523 25.2994C12.0875 25.3345 12.2663 25.3871 12.456 25.442C12.8878 25.5693 13.4243 25.7273 13.9107 25.8085C14.3054 25.8743 14.7241 25.9072 15.1624 25.9072C15.664 25.9072 16.1634 25.8633 16.6127 25.7778C17.557 25.5978 18.4708 25.0755 19.0116 24.6476L19.3344 24.3908C19.9057 24.4654 20.488 24.5049 21.0768 24.5049C21.7355 24.5049 22.3832 24.4567 23.0178 24.3623L23.4518 24.7003C24.3699 25.4135 26.0055 26.1662 27.5866 26.2364C27.8112 26.2474 28.0511 26.2518 28.2954 26.2518C29.4796 26.2518 30.7248 26.1377 31.7891 26.0257L31.861 26.0192C32.5502 26.4383 34.3014 27.8143 35.3285 30.327C36.5018 33.193 35.8192 35.1088 34.2207 35.5126C34.2272 35.4665 34.2359 35.4226 34.2425 35.3765C34.393 34.3122 34.4279 33.1711 34.1465 32.1133C34.116 31.9948 34.0789 31.8785 34.0397 31.7622C33.9219 31.4198 33.7802 31.0841 33.5904 30.7769C33.4683 30.5793 33.1281 29.9802 32.8271 30.1141C32.705 30.169 32.7006 30.327 32.7355 30.4323C33.0801 31.4725 33.2546 32.5566 33.2546 33.6517C33.2524 39.8248 27.7109 44.8502 20.9002 44.8502Z" fill="white"/>
<path d="M35.4034 40.8888C34.9672 41.286 34.2257 41.6174 33.2008 41.8741C32.239 42.1155 31.3122 42.3284 30.4922 42.5171C30.4049 42.5369 30.3177 42.5566 30.2305 42.5764C30.2894 42.5259 30.3482 42.4732 30.4049 42.4227C31.6524 41.2904 32.6337 39.9693 33.3207 38.4968C33.602 37.8933 33.8267 37.2635 33.9924 36.6183C34.0447 36.6139 34.0971 36.6073 34.1472 36.5985C34.4787 36.548 34.7906 36.4515 35.0784 36.3154C35.2943 37.0089 35.6084 38.0557 35.8047 38.8347L35.8112 38.8567C35.9857 39.5523 36.1514 40.2107 35.4034 40.8888Z" fill="#E60012"/>
<path d="M6.00459 18.8667C6.24885 18.7219 6.47347 18.5748 6.68065 18.4322L6.80278 17.5259C6.4015 17.392 6.02422 17.2516 5.67529 17.1067C6.20305 16.7775 6.63703 16.4549 6.99033 16.1521L7.08846 15.4345C7.04921 15.474 7.00777 15.5113 6.96634 15.5508C6.44948 15.3796 5.97188 15.1909 5.53353 14.9934C6.0264 14.6533 6.4364 14.3197 6.77661 14.0081C6.93144 14.0827 7.09064 14.1551 7.25421 14.2275L7.31963 13.7535C7.25639 13.725 7.19096 13.6964 7.1299 13.6657C7.21495 13.5801 7.29128 13.4967 7.36543 13.4155L7.48537 12.5334C7.30218 12.7857 7.04485 13.0995 6.68719 13.4529C6.17688 13.1961 5.71672 12.9328 5.30673 12.6716C5.72981 12.2942 6.08092 11.9321 6.36443 11.6073C6.68501 11.807 7.07538 12.0242 7.52681 12.2305L7.59223 11.7543C7.24112 11.5875 6.92926 11.4142 6.6632 11.2518C6.82676 11.0477 6.95979 10.8655 7.06666 10.7119C6.83549 10.7909 6.58905 10.8589 6.33608 10.9182C6.31427 10.9445 6.29464 10.9709 6.27283 10.9972C6.24885 10.9818 6.22486 10.9643 6.20305 10.9489C6.00023 10.9928 5.79305 11.0301 5.58151 11.0608C5.68183 11.1398 5.81268 11.2386 5.97406 11.3483C5.68619 11.6709 5.3329 12.033 4.90546 12.4061C4.43004 12.0813 4.02876 11.7675 3.69728 11.48C3.82813 11.3659 3.94371 11.2627 4.03967 11.1728C3.81504 11.1728 3.59478 11.164 3.38106 11.1464C3.37234 11.1552 3.36361 11.1618 3.35489 11.1706C3.34399 11.1618 3.33526 11.1508 3.32436 11.142C3.06702 11.1201 2.81623 11.0894 2.57852 11.0477C2.69628 11.175 2.83367 11.3176 2.99287 11.469C2.73772 11.6709 2.44767 11.8794 2.14453 12.0681L2.27538 12.5246C2.66357 12.2942 3.02558 12.0308 3.33526 11.7806C3.66675 12.0725 4.06584 12.3885 4.53908 12.7177C4.15961 13.0271 3.72999 13.3431 3.24585 13.6526C2.91436 13.4068 2.63304 13.172 2.39969 12.9591L2.63304 13.7711C2.6941 13.8193 2.75516 13.8676 2.82059 13.9181C2.77915 13.9422 2.73772 13.9664 2.69628 13.9905L2.82713 14.4448C2.96234 14.368 3.09537 14.2912 3.22404 14.2122C3.62095 14.4909 4.07892 14.7761 4.6045 15.0505C4.19451 15.3006 3.73653 15.553 3.22404 15.801C3.22186 15.7988 3.2175 15.7966 3.21532 15.7944L3.40941 16.4725C3.77143 16.6941 4.19015 16.9268 4.66993 17.1594C4.38206 17.313 4.07238 17.4666 3.73871 17.618L4.01132 18.5661C4.2861 18.6977 4.57833 18.8272 4.89455 18.9523C4.707 19.0467 4.51073 19.141 4.30573 19.2332C4.47583 19.299 4.71572 19.3736 4.99051 19.4131C4.99269 19.4131 4.99487 19.4131 4.99705 19.4131C5.16279 19.3319 5.32418 19.2486 5.47683 19.1674C5.6513 19.2288 5.83231 19.2859 6.01768 19.3429C6.22922 19.2749 6.42767 19.1739 6.60868 19.0357C6.39278 18.9874 6.19651 18.9282 6.00459 18.8667ZM3.64494 13.9444C4.1269 13.6284 4.55871 13.3058 4.93599 12.992C5.34816 13.2575 5.8105 13.5253 6.32517 13.7908C5.97624 14.1002 5.55534 14.4294 5.04721 14.7652C4.51727 14.4974 4.05057 14.2187 3.64494 13.9444ZM3.66457 16.0929C4.19015 15.8273 4.6612 15.5618 5.07774 15.2962C5.52917 15.5113 6.02422 15.7176 6.56507 15.9041C6.18996 16.2135 5.72545 16.5449 5.15625 16.8829C4.57833 16.6195 4.08329 16.3496 3.66457 16.0929ZM5.42449 18.6692C4.87274 18.4673 4.38206 18.2479 3.95025 18.0262C4.40387 17.8221 4.81386 17.6115 5.1846 17.403C5.60768 17.5873 6.07438 17.7695 6.58033 17.9384C6.24666 18.1754 5.86284 18.4212 5.42449 18.6692Z" fill="#F39800"/>
<path d="M23.7305 14.3395C24.3804 14.6336 24.9539 14.7235 25.4206 14.7433C25.4294 14.7433 25.4381 14.7433 25.449 14.7455C25.5929 14.3439 25.6409 13.8457 25.6082 13.4924L25.0477 13.1479L25.5711 12.7046C25.5406 12.2942 25.401 11.9058 25.2222 11.6117C25.4773 11.7566 25.6954 12.0045 25.8437 12.314C25.8982 12.4259 26.0356 12.4676 26.1403 12.3995C26.2232 12.3447 26.2559 12.2393 26.2166 12.1494C25.9135 11.434 25.3421 10.9512 24.6879 10.9512C24.496 10.9512 24.3128 10.9929 24.1383 11.0697C24.0336 11.1026 23.9311 11.1553 23.8308 11.2299C23.3489 11.5876 23.0065 12.2591 22.9389 13.0469C22.9367 13.0733 22.9345 13.0996 22.9323 13.1281C22.9301 13.1479 22.9301 13.1654 22.9301 13.1852C22.928 13.2335 22.9258 13.2839 22.9258 13.3322C22.9258 13.5934 22.9519 13.8348 23.0043 14.0564C23.1918 14.1157 23.4383 14.2078 23.7305 14.3395Z" fill="#0B318F"/>
<path d="M17.7299 17.0459C17.623 16.8242 17.5052 16.6114 17.3504 16.4227C17.0822 16.0957 16.7027 15.8674 16.2731 15.8762C15.9111 15.8828 15.5709 16.0869 15.3746 16.4161C15.1478 16.7957 15.1718 17.2873 15.3244 17.6955C15.4989 18.1607 15.8849 18.5184 16.3189 18.7401C16.7965 18.9836 17.346 19.1043 17.8782 19.1219C18.4888 19.1438 19.0362 18.9946 19.0493 19.0034C18.6262 18.694 18.3449 18.2946 18.0984 17.8359C17.9676 17.5835 17.8564 17.3114 17.7299 17.0459Z" fill="#E60012"/>
<path d="M26.0009 17.596C25.9987 17.5938 25.9966 17.5917 25.9966 17.5917C25.8548 17.449 25.6258 17.4622 25.4971 17.6158C24.6444 18.645 23.1898 19.3209 21.5389 19.3209C20.3635 19.3209 19.2883 18.9764 18.4596 18.408C18.6254 18.6297 18.8151 18.8316 19.0506 19.0027C19.0397 18.9961 18.7126 19.0817 18.2852 19.1124C19.1946 19.6786 20.3199 20.0144 21.5389 20.0144C23.3948 20.0144 25.037 19.2375 26.0184 18.0547C26.1318 17.9208 26.1252 17.7211 26.0009 17.596Z" fill="#0B318F"/>
</svg>
