<svg width="34" height="34" viewBox="0 0 34 34" fill="none" xmlns="http://www.w3.org/2000/svg">
<g clip-path="url(#clip0_21154_120096)">
<path d="M0 0V34H33.9994V0H0Z" fill="#FF0000"/>
<path fill-rule="evenodd" clip-rule="evenodd" d="M7.86659 14.3157C9.84274 14.3157 11.4441 12.7114 11.4441 10.7383H11.4411V3.57422H9.29098V10.7383C9.29098 11.5269 8.65825 12.1717 7.86659 12.1717C7.07194 12.1717 6.43621 11.5269 6.43621 10.7383V3.57422H4.28613V10.7383C4.28613 12.7114 5.88744 14.3157 7.86659 14.3157ZM25.0481 3.57422H27.1952V14.3157H25.0481V3.57422ZM21.4649 28.2754H14.31V17.5338H16.454V26.1224H21.4649V28.2754ZM19.3178 14.3157H21.4649V3.57422H19.3178V9.71269L16.454 3.57422H14.31V14.3157H16.454V8.17732L19.3178 14.3157ZM7.86925 17.5338C5.89009 17.5338 4.28878 19.1382 4.28878 21.1173V24.6948C4.28878 26.6711 5.89009 28.2754 7.86925 28.2754C8.10315 28.2754 8.33705 28.2574 8.56495 28.2125L9.29664 30.4255H11.4467L10.3852 27.2408C11.0419 26.5871 11.4467 25.6935 11.4467 24.6948V21.1173C11.4437 19.1382 9.8424 17.5338 7.86925 17.5338ZM9.29364 24.6948C9.29364 25.4806 8.66091 26.1224 7.86925 26.1224C7.07759 26.1224 6.43887 25.4806 6.43887 24.6948V21.1173C6.43887 20.3257 7.07459 19.687 7.86925 19.687C8.66091 19.687 9.29364 20.3227 9.29364 21.1173V24.6948ZM22.5363 21.1173C22.5363 19.1382 24.1436 17.5338 26.1226 17.5338C28.0959 17.5338 29.6971 19.1382 29.6971 21.1173V24.6948C29.6971 26.6711 28.0959 28.2754 26.1226 28.2754C24.1406 28.2754 22.5363 26.6711 22.5363 24.6948V21.1173ZM26.1226 26.1224C26.9084 26.1224 27.5531 25.4806 27.5531 24.6948V21.1173C27.5531 20.3227 26.9084 19.687 26.1226 19.687C25.3311 19.687 24.6893 20.3257 24.6893 21.1173V24.6948C24.6893 25.4806 25.3311 26.1224 26.1226 26.1224Z" fill="white"/>
</g>
<defs>
<clipPath id="clip0_21154_120096">
<rect width="34" height="34" fill="white"/>
</clipPath>
</defs>
</svg>
